<?xml version="1.0" encoding="utf-8"?>
<!-- Generator: Adobe Illustrator 25.1.0, SVG Export Plug-In . SVG Version: 6.00 Build 0)  -->
<svg version="1.1" id="圖層_1" xmlns="http://www.w3.org/2000/svg" xmlns:xlink="http://www.w3.org/1999/xlink" x="0px" y="0px"
	 viewBox="0 0 161.4 279.7" style="enable-background:new 0 0 161.4 279.7;" xml:space="preserve">
<style type="text/css">
	.st0{fill:#FFFFFF;}
</style>
<g id="组_40" transform="translate(-137 -120.554)">
	<path id="路径_353" class="st0" d="M217.7,133.4L217.7,133.4c34.6,0,64.2,24.9,70.1,59h0.7c-6.7-39.1-43.8-65.3-82.9-58.6
		c-30,5.1-53.4,28.6-58.6,58.6h0.7C153.5,158.3,183.1,133.4,217.7,133.4z"/>
	<path id="路径_354" class="st0" d="M217.7,387.3L217.7,387.3c-34.6,0-64.2-24.9-70.1-59H147c6.7,39.1,43.8,65.3,82.9,58.6
		c30-5.1,53.4-28.6,58.6-58.6h-0.7C281.9,362.5,252.3,387.3,217.7,387.3z"/>
	<path id="路径_355" class="st0" d="M217.7,133.4L217.7,133.4c34.6,0,64.2,24.9,70.1,59h0.7c-6.7-39.1-43.8-65.3-82.9-58.6
		c-30,5.1-53.4,28.6-58.6,58.6h0.7C153.5,158.3,183.1,133.4,217.7,133.4z"/>
	<path id="路径_356" class="st0" d="M254.5,291.3c-0.5,0-0.9-0.4-0.9-0.9c0,0,0,0,0,0c0-5.3-4.3-9.6-9.6-9.6h-53
		c-5.3,0-9.6,4.3-9.6,9.6c0,0.5-0.4,0.9-0.9,0.9s-0.9-0.4-0.9-0.9c0-6.3,5.1-11.4,11.4-11.4h53c6.3,0,11.4,5.1,11.4,11.4
		C255.4,290.9,255,291.3,254.5,291.3C254.5,291.3,254.5,291.3,254.5,291.3z"/>
	<path id="路径_357" class="st0" d="M244,336.3h-53c-4.5,0-8.6-2.6-10.4-6.7c-0.2-0.5,0-1,0.5-1.2c0.5-0.2,1,0,1.2,0.5
		c1.5,3.4,5,5.6,8.7,5.6h53c3.8,0,7.3-2.3,8.8-5.8c0.2-0.5,0.8-0.6,1.2-0.4c0.4,0.2,0.6,0.7,0.5,1.1
		C252.7,333.5,248.6,336.3,244,336.3z"/>
	<path id="路径_358" class="st0" d="M229.8,309.3H208c-5.1,0-9.2-4.1-9.2-9.2v-6.4c0-0.5,0.4-0.9,0.9-0.9c0,0,0,0,0,0h8.1
		c0.5,0,0.9,0.4,0.9,0.9s-0.4,0.9-0.9,0.9h-7.2v5.5c0,4.1,3.3,7.4,7.4,7.4h21.7c4.1,0,7.4-3.3,7.4-7.4c0-0.5,0.4-0.9,0.9-0.9
		s0.9,0.4,0.9,0.9l0,0C239,305.1,234.8,309.3,229.8,309.3z"/>
	<path id="路径_359" class="st0" d="M218.9,336.3c-0.5,0-0.9-0.4-0.9-0.9v-27c0-0.5,0.4-0.9,0.9-1s0.9,0.4,1,0.9c0,0,0,0,0,0.1v27
		C219.8,335.8,219.4,336.3,218.9,336.3z"/>
	<path id="路径_360" class="st0" d="M238.1,322.9h-38.3c-0.5,0-0.9-0.4-0.9-1c0-0.5,0.4-0.9,0.9-0.9h38.3c0.5,0,0.9,0.4,0.9,1
		C238.9,322.5,238.5,322.9,238.1,322.9L238.1,322.9z"/>
	<path id="路径_361" class="st0" d="M209.1,254.1c-12.5,0-22.7-10.2-22.7-22.7v-45.4c0-0.5,0.4-0.9,1-0.9c0.5,0,0.9,0.4,0.9,0.9
		v45.4c0,11.5,9.3,20.8,20.9,20.9c0.5,0,0.9,0.4,0.9,1C210,253.7,209.6,254.1,209.1,254.1L209.1,254.1z"/>
	<path id="路径_362" class="st0" d="M232.6,201.9c1.7,0,3.1,1.4,3.1,3.1s-1.4,3.1-3.1,3.1c-1.7,0-3.1-1.4-3.1-3.1
		C229.6,203.2,230.9,201.9,232.6,201.9 M232.6,200c-2.7,0-4.9,2.2-4.9,4.9c0,2.7,2.2,4.9,4.9,4.9c2.7,0,4.9-2.2,4.9-4.9
		C237.5,202.2,235.3,200,232.6,200C232.6,200,232.6,200,232.6,200L232.6,200z"/>
	<path id="路径_363" class="st0" d="M219,270.7h-9.9c-0.5,0-0.9-0.4-0.9-0.9c0,0,0,0,0,0v-83.7c0-0.5,0.4-0.9,0.9-0.9c0,0,0,0,0,0
		h15.8c12.5,0,22.7,10.2,22.7,22.7v24.3c0,12.5-10.2,22.7-22.7,22.7c-0.5,0-0.9-0.4-0.9-0.9s0.4-0.9,0.9-0.9l0,0
		c11.5,0,20.8-9.3,20.9-20.9v-24.3c0-11.5-9.3-20.8-20.9-20.9H210v81.8h9c0.5,0,0.9,0.4,1,0.9S219.6,270.7,219,270.7
		C219,270.7,219,270.7,219,270.7L219,270.7z"/>
	<path id="路径_364" class="st0" d="M257.2,216c-0.5,0-0.9-0.4-0.9-0.9c0,0,0,0,0,0c0-5.3-4.3-9.6-9.6-9.6c-0.5,0-0.9-0.4-0.9-0.9
		s0.4-0.9,0.9-0.9l0,0c6.3,0,11.4,5.1,11.4,11.4C258.2,215.6,257.7,216,257.2,216z"/>
	<path id="路径_365" class="st0" d="M200.4,209.8c-13,0-23.5-10.5-23.5-23.5c0-0.5,0.4-0.9,0.9-0.9s0.9,0.4,0.9,0.9
		c0,11.9,9.7,21.6,21.6,21.6c0.5,0,0.9,0.4,1,0.9S200.9,209.8,200.4,209.8C200.4,209.8,200.4,209.8,200.4,209.8L200.4,209.8z"/>
	<path id="路径_366" class="st0" d="M197.8,156.9l-3.3,1.4l1.4,3.2l-1.2,0.5l-3.2-7.4l1.2-0.5l1.4,3.2l3.3-1.4l-1.4-3.2l1.2-0.5
		l3.2,7.4l-1.2,0.5L197.8,156.9z"/>
	<path id="路径_367" class="st0" d="M204,154.3c-0.1-0.6-0.2-1.2-0.3-1.9c0-0.3,0-0.6,0.1-0.8c0.2-0.5,0.5-0.9,0.8-1.2
		c0.5-0.4,1-0.7,1.6-0.8c0.6-0.1,1.2-0.1,1.8,0.1c0.5,0.2,0.9,0.4,1.2,0.8c0.2,0.2,0.4,0.4,0.5,0.7c0.3,1.2,0.6,2.4,0.7,3.7
		c0,0.3,0,0.6-0.2,0.8c-0.2,0.5-0.4,0.9-0.8,1.2c-0.5,0.4-1,0.7-1.7,0.8c-0.6,0.1-1.2,0.1-1.8-0.1c-0.5-0.1-0.9-0.4-1.2-0.8
		c-0.1-0.1-0.2-0.2-0.2-0.3c-0.1-0.1-0.1-0.3-0.2-0.4C204.3,155.5,204.1,154.9,204,154.3z M205.4,154.1c0.1,0.5,0.2,1.1,0.4,1.6
		c0.1,0.2,0.3,0.5,0.5,0.6c0.2,0.1,0.4,0.2,0.6,0.3c0.3,0.1,0.6,0.1,0.8,0c0.3,0,0.6-0.2,0.8-0.3c0.2-0.1,0.3-0.3,0.5-0.5
		c0.1-0.2,0.2-0.5,0.2-0.7c0-0.5-0.1-1.1-0.2-1.6c-0.1-0.5-0.2-1.1-0.4-1.6c-0.1-0.2-0.3-0.4-0.5-0.6c-0.2-0.1-0.4-0.2-0.6-0.3
		c-0.3-0.1-0.6-0.1-0.9,0c-0.3,0.1-0.5,0.2-0.8,0.3c-0.2,0.1-0.4,0.3-0.5,0.5c-0.1,0.2-0.2,0.5-0.2,0.7
		C205.2,153,205.2,153.5,205.4,154.1L205.4,154.1z"/>
	<path id="路径_368" class="st0" d="M215.6,148.6l1.4,0l-0.1,5.2c0,0.5,0.2,0.9,0.5,1.3c0.4,0.3,0.8,0.5,1.3,0.5
		c0.5,0,0.9-0.1,1.3-0.4c0.4-0.3,0.6-0.8,0.5-1.2l0.1-5.2l1.4,0l-0.1,5.3c0,0.8-0.4,1.5-1,2c-1.3,1-3.2,1-4.5-0.1
		c-0.6-0.5-0.9-1.3-0.9-2L215.6,148.6z"/>
	<path id="路径_369" class="st0" d="M229.3,157c1.1,0.3,1.8,0,2-0.7c0.1-0.6-0.2-1-0.9-1.3c-0.3-0.1-0.7-0.3-1.1-0.4
		c-0.6-0.2-1.2-0.6-1.5-1.2c-0.3-0.5-0.4-1.1-0.3-1.6c0.1-0.6,0.6-1.2,1.2-1.5c0.7-0.3,1.5-0.4,2.2-0.1c1,0.2,1.9,0.7,2.6,1.5
		l-1,0.8c-0.6-0.5-1.3-0.9-2-1.1c-0.4-0.1-0.7-0.1-1.1,0c-0.3,0.1-0.6,0.4-0.6,0.7c-0.1,0.2,0,0.5,0.1,0.7c0.2,0.3,0.5,0.5,0.8,0.6
		c0.2,0.1,0.5,0.2,1,0.4c0.7,0.2,1.2,0.6,1.6,1.2c0.3,0.5,0.4,1.1,0.2,1.6c-0.4,1.5-1.6,2-3.6,1.6c-1.2-0.3-2.3-0.9-3.1-1.9l1.1-0.7
		C227.6,156.3,228.4,156.8,229.3,157z"/>
	<path id="路径_370" class="st0" d="M239.6,153l5.2,2.4l-0.5,1l-4-1.8l-1,2.1l3.4,1.6l-0.5,1l-3.4-1.6l-1,2.1l4,1.8l-0.5,1
		l-5.2-2.4L239.6,153z"/>
	<path id="路径_371" class="st0" d="M197.7,365.5l-3.3-1.4l-1.4,3.2l-1.2-0.5l3.2-7.4l1.2,0.5l-1.4,3.2l3.3,1.4l1.4-3.2l1.2,0.5
		l-3.2,7.4l-1.2-0.5L197.7,365.5z"/>
	<path id="路径_372" class="st0" d="M204.3,367.2c0.1-0.6,0.2-1.2,0.4-1.8c0.1-0.3,0.2-0.5,0.4-0.7c0.3-0.4,0.7-0.6,1.2-0.8
		c0.6-0.2,1.2-0.2,1.8-0.1c0.6,0.1,1.2,0.4,1.7,0.8c0.4,0.3,0.6,0.7,0.8,1.2c0.1,0.3,0.2,0.5,0.2,0.8c-0.1,1.2-0.4,2.5-0.7,3.7
		c-0.1,0.3-0.2,0.5-0.5,0.7c-0.3,0.4-0.7,0.6-1.2,0.8c-0.6,0.2-1.2,0.2-1.8,0.1c-0.6-0.1-1.2-0.4-1.6-0.8c-0.4-0.3-0.7-0.7-0.8-1.2
		c0-0.1-0.1-0.3-0.1-0.4c0-0.1,0-0.3,0-0.4C204.1,368.4,204.2,367.8,204.3,367.2z M205.7,367.4c-0.1,0.5-0.2,1.1-0.2,1.6
		c0,0.3,0.1,0.5,0.2,0.7c0.1,0.2,0.3,0.4,0.5,0.5c0.2,0.2,0.5,0.3,0.8,0.3c0.3,0.1,0.6,0.1,0.9,0c0.2-0.1,0.4-0.2,0.6-0.3
		c0.2-0.1,0.4-0.4,0.5-0.6c0.2-0.5,0.3-1,0.4-1.6c0.1-0.5,0.2-1.1,0.2-1.6c0-0.3-0.1-0.5-0.2-0.7c-0.1-0.2-0.3-0.4-0.5-0.5
		c-0.2-0.2-0.5-0.3-0.8-0.3c-0.3-0.1-0.6,0-0.8,0c-0.2,0.1-0.4,0.2-0.6,0.3c-0.2,0.1-0.4,0.4-0.5,0.6
		C205.9,366.3,205.7,366.9,205.7,367.4L205.7,367.4z"/>
	<path id="路径_373" class="st0" d="M217.2,365.8l-2.5,0l0-1.1l6.3-0.1l0,1.1l-2.5,0l0.1,7l-1.4,0L217.2,365.8z"/>
	<path id="路径_374" class="st0" d="M225,364.2l5.6-1.1l0.2,1.1l-4.3,0.9l0.5,2.3l3.7-0.7l0.2,1.1l-3.6,0.7l0.5,2.3l4.3-0.9
		l0.2,1.1l-5.6,1.1L225,364.2z"/>
	<path id="路径_375" class="st0" d="M234.6,361.7l1.2-0.5l2.7,6.4l4-1.7l0.5,1.1l-5.3,2.2L234.6,361.7z"/>
	<g id="组_39">
		<path id="路径_376" class="st0" d="M159.4,254.6l6.1,6.1l-6,6l-6.1-6.1L159.4,254.6 M159.4,254.1l-6.5,6.5l6.6,6.6l6.5-6.5
			L159.4,254.1z"/>
		<path id="路径_377" class="st0" d="M159.3,254.7l6,6l-5.8,5.8l-5.9-5.9l5.9-5.9c0.1-0.1,0-0.1,0-0.2c-0.1,0-0.1,0-0.2,0l-6,6
			c-0.1,0.1-0.1,0.1,0,0.2l6.1,6.1l0.1,0l0.1,0l6-6l0-0.1l0-0.1l-6.1-6.1c-0.1-0.1-0.1,0-0.2,0C159.3,254.6,159.3,254.6,159.3,254.7
			L159.3,254.7z M159.4,254.1l-0.1-0.1l-6.5,6.5c-0.1,0.1-0.1,0.1,0,0.2l6.6,6.6l0.1,0l0.1,0l6.5-6.5l0-0.1l0-0.1l-6.6-6.6
			C159.5,254,159.4,254,159.4,254.1L159.4,254.1l-0.1,0.1l6.5,6.5l-6.3,6.3l-6.4-6.4l6.4-6.4L159.4,254.1l-0.1,0.1L159.4,254.1z"/>
		<path id="路径_378" class="st0" d="M146.9,254.9l5.8,5.8l-5.8,5.8V254.9 M146.6,254.1v13l0,0l6.5-6.5L146.6,254.1z"/>
		<path id="路径_379" class="st0" d="M146.8,255l5.7,5.7l-5.4,5.4v-11.2c0-0.1-0.1-0.1-0.1-0.1s-0.1,0.1-0.1,0.1v11.5
			c0,0.1,0.1,0.1,0.1,0.1c0,0,0.1,0,0.1,0l5.8-5.8l0-0.1l0-0.1l-5.8-5.8c-0.1-0.1-0.1-0.1-0.2,0C146.7,254.8,146.7,254.9,146.8,255
			C146.8,255,146.8,255,146.8,255L146.8,255z M146.6,254.1h-0.1v13l0,0.1l0.1,0c0.1,0.1,0.1,0.1,0.2,0l6.5-6.5l0-0.1l0-0.1l-6.5-6.5
			c-0.1-0.1-0.1-0.1-0.2,0c0,0,0,0.1,0,0.1L146.6,254.1l-0.1,0.1l6.4,6.4l-6.4,6.4l0.1,0.1l0.1-0.1l0,0v-12.9L146.6,254.1l-0.1,0.1
			L146.6,254.1z"/>
		<path id="路径_380" class="st0" d="M172.3,254.7l6.1,6.1l-6,6l-6.1-6.1L172.3,254.7 M172.3,254.2l-6.5,6.5l6.6,6.6l6.5-6.5
			L172.3,254.2z"/>
		<path id="路径_381" class="st0" d="M172.2,254.8l6,6l-5.8,5.8l-5.9-5.9l5.9-5.9c0.1-0.1,0-0.1,0-0.2c-0.1,0-0.1,0-0.2,0l-6,6
			c-0.1,0.1-0.1,0.1,0,0.2l6.1,6.1l0.1,0l0.1,0l6-6c0.1-0.1,0.1-0.1,0-0.2l-6.1-6.1c-0.1-0.1-0.1,0-0.2,0
			C172.2,254.7,172.2,254.7,172.2,254.8L172.2,254.8z M172.3,254.2l-0.1-0.1l-6.5,6.5c-0.1,0.1-0.1,0.1,0,0.2l6.6,6.6l0.1,0l0.1,0
			l6.5-6.5l0-0.1l0-0.1l-6.6-6.6c-0.1-0.1-0.1-0.1-0.2,0L172.3,254.2l-0.1,0.1l6.5,6.5l-6.3,6.3l-6.4-6.4l6.4-6.4L172.3,254.2
			l-0.1,0.1L172.3,254.2z"/>
		<path id="路径_382" class="st0" d="M159.4,266.8l6.1,6.1l-6,6l-6.1-6.1L159.4,266.8 M159.4,266.4l-6.5,6.5l6.6,6.6l6.5-6.5
			L159.4,266.4z"/>
		<path id="路径_383" class="st0" d="M159.3,266.9l6,6l-5.8,5.8l-5.9-5.9l5.9-5.9c0.1-0.1,0-0.1,0-0.2c-0.1,0-0.1,0-0.2,0l-6,6
			c-0.1,0.1-0.1,0.1,0,0.2l6.1,6.1l0.1,0l0.1,0l6-6l0-0.1l0-0.1l-6.1-6.1c-0.1-0.1-0.1,0-0.2,0C159.3,266.8,159.3,266.9,159.3,266.9
			L159.3,266.9z M159.4,266.4l-0.1-0.1l-6.5,6.5c-0.1,0.1-0.1,0.1,0,0.2l6.6,6.6l0.1,0l0.1,0l6.5-6.5l0-0.1l0-0.1l-6.6-6.6
			C159.5,266.2,159.4,266.2,159.4,266.4L159.4,266.4l-0.1,0.1l6.5,6.5l-6.3,6.3l-6.4-6.4l6.4-6.4L159.4,266.4l-0.1,0.1L159.4,266.4z
			"/>
		<path id="路径_384" class="st0" d="M146.9,267.1l5.8,5.8l-5.8,5.8V267.1 M146.6,266.3v13l0,0l6.5-6.5L146.6,266.3z"/>
		<path id="路径_385" class="st0" d="M146.8,267.2l5.7,5.7l-5.4,5.4v-11.2c0-0.1-0.1-0.1-0.1-0.1s-0.1,0.1-0.1,0.1v11.5
			c0,0.1,0.1,0.1,0.1,0.1c0,0,0.1,0,0.1,0l5.8-5.8l0-0.1l0-0.1L147,267c-0.1-0.1-0.1,0-0.2,0C146.8,267.1,146.8,267.1,146.8,267.2
			L146.8,267.2z M146.6,266.3h-0.1v13l0,0.1l0,0l0.1,0l0.1,0l6.5-6.5l0-0.1l0-0.1L146.6,266.3c0-0.2,0-0.2-0.1-0.1c0,0,0,0.1,0,0.1
			L146.6,266.3l-0.1,0.1l6.4,6.4l-6.4,6.4l0.1,0.1l0.1-0.1l0,0v-12.9H146.6l-0.1,0.1L146.6,266.3z"/>
		<path id="路径_386" class="st0" d="M159.4,279.1l6.1,6.1l-6,6l-6.1-6.1L159.4,279.1 M159.4,278.6l-6.5,6.5l6.6,6.6l6.5-6.5
			L159.4,278.6z"/>
		<path id="路径_387" class="st0" d="M159.3,279.2l6,6l-5.8,5.8l-5.9-5.9l5.9-5.9c0.1-0.1,0-0.1,0-0.2c-0.1,0-0.1,0-0.2,0l-6,6
			c-0.1,0.1-0.1,0.1,0,0.2l6.1,6.1l0.1,0l0.1,0l6-6l0-0.1l0-0.1l-6.1-6.1c-0.1-0.1-0.1,0-0.2,0C159.3,279,159.3,279.1,159.3,279.2
			L159.3,279.2z M159.4,278.6l-0.1-0.1l-6.5,6.5c-0.1,0.1-0.1,0.1,0,0.2l6.6,6.6l0.1,0l0.1,0l6.5-6.5l0-0.1l0-0.1l-6.6-6.6
			c-0.1-0.1-0.1-0.1-0.2,0c0,0,0,0,0,0L159.4,278.6l-0.1,0.1l6.5,6.5l-6.3,6.3l-6.4-6.4l6.4-6.4L159.4,278.6L159.4,278.6
			L159.4,278.6z"/>
		<path id="路径_388" class="st0" d="M146.9,279.3l5.8,5.8l-5.8,5.8V279.3 M146.6,278.6v13l0,0l6.5-6.5L146.6,278.6z"/>
		<path id="路径_389" class="st0" d="M146.8,279.4l5.7,5.7l-5.4,5.4v-11.2c0-0.1-0.1-0.1-0.1-0.1S146.8,279.3,146.8,279.4l0,11.4
			c0,0.1,0.1,0.1,0.1,0.1c0,0,0.1,0,0.1,0l5.8-5.8l0-0.1l0-0.1l-5.8-5.8c-0.1-0.1-0.1-0.1-0.2,0
			C146.7,279.3,146.7,279.4,146.8,279.4C146.8,279.4,146.8,279.4,146.8,279.4L146.8,279.4z M146.6,278.6h-0.1v13l0,0.1l0,0l0.1,0
			l0.1,0l6.5-6.5l0-0.1l0-0.1l-6.5-6.5c-0.1-0.1-0.1-0.1-0.2,0c0,0,0,0.1,0,0.1L146.6,278.6l-0.1,0.1l6.4,6.4l-6.4,6.4l0.1,0.1
			l0.1-0.1l0,0v-12.9L146.6,278.6l-0.1,0.1L146.6,278.6z"/>
		<path id="路径_390" class="st0" d="M146.9,291.6l5.3,5.8l-5.3,5.8V291.6 M146.6,290.8v13l0,0l5.9-6.5L146.6,290.8z"/>
		<path id="路径_391" class="st0" d="M146.8,291.7l5.2,5.7l-4.9,5.4v-11.2c0-0.1-0.1-0.1-0.1-0.1S146.7,291.5,146.8,291.7l0,11.4
			c0,0.1,0.1,0.1,0.1,0.1c0,0,0.1,0,0.1,0l5.3-5.8c0-0.1,0-0.1,0-0.2l-5.3-5.8c-0.1-0.1-0.1-0.1-0.2,0S146.7,291.6,146.8,291.7
			L146.8,291.7L146.8,291.7z M146.6,290.8h-0.1v13l0,0.1l0,0l0.1,0l0.1,0l5.9-6.5c0-0.1,0-0.1,0-0.2l-6-6.5c-0.1-0.1-0.1-0.1-0.2,0
			c0,0,0,0.1,0,0.1L146.6,290.8l-0.1,0.1l5.9,6.4l-5.9,6.4l0.1,0.1l0.1-0.1l0,0v-12.9H146.6l-0.1,0.1L146.6,290.8z"/>
		<path id="路径_392" class="st0" d="M146.9,305.8l5.8,5.8l-5.8,5.8V305.8 M146.6,305v13l0,0l6.5-6.5L146.6,305z"/>
		<path id="路径_393" class="st0" d="M146.8,305.9l5.7,5.7L147,317v-11.2c0-0.1-0.1-0.1-0.1-0.1s-0.1,0.1-0.1,0.1l0,0v11.5
			c0,0.1,0.1,0.1,0.1,0.1c0,0,0.1,0,0.1,0l5.8-5.8l0-0.1l0-0.1l-5.8-5.8c-0.1-0.1-0.1,0-0.2,0C146.8,305.8,146.8,305.9,146.8,305.9
			L146.8,305.9z M146.6,305h-0.1v13l0,0.1l0,0l0.1,0l0.1,0l6.5-6.5c0.1-0.1,0.1-0.1,0-0.2l-6.5-6.5c-0.1-0.1-0.1-0.1-0.2,0
			c0,0,0,0.1,0,0.1H146.6l-0.1,0.1l6.4,6.4l-6.4,6.4l0.1,0.1l0.1-0.1l0,0V305H146.6l-0.1,0.1L146.6,305z"/>
		<path id="路径_394" class="st0" d="M159.4,242l6.1,6.1l-6,6l-6.1-6.1L159.4,242 M159.4,241.6l-6.5,6.5l6.6,6.6l6.5-6.5
			L159.4,241.6z"/>
		<path id="路径_395" class="st0" d="M159.3,242.1l6,6l-5.8,5.8l-5.9-5.9l5.9-5.9c0.1-0.1,0-0.1,0-0.2c-0.1,0-0.1,0-0.2,0l-6,6
			c-0.1,0.1-0.1,0.1,0,0.2l6.1,6.1l0.1,0l0.1,0l6-6l0-0.1l0-0.1l-6.1-6.1c-0.1-0.1-0.1-0.1-0.2,0C159.3,242,159.3,242.1,159.3,242.1
			C159.3,242.1,159.3,242.1,159.3,242.1L159.3,242.1z M159.4,241.6l-0.1-0.1l-6.5,6.5c-0.1,0.1-0.1,0.1,0,0.2l6.6,6.6l0.1,0l0.1,0
			l6.5-6.5l0-0.1l0-0.1l-6.6-6.6c-0.1-0.1-0.1-0.1-0.2,0L159.4,241.6l-0.1,0.1l6.5,6.5l-6.3,6.3l-6.4-6.4l6.4-6.4L159.4,241.6
			l-0.1,0.1L159.4,241.6z"/>
		<path id="路径_396" class="st0" d="M146.9,242.3l5.8,5.8l-5.8,5.8V242.3 M146.6,241.5v13l0,0l6.5-6.5L146.6,241.5z"/>
		<path id="路径_397" class="st0" d="M146.8,242.4l5.7,5.7l-5.4,5.4v-11.2c0-0.1-0.1-0.1-0.1-0.1s-0.1,0.1-0.1,0.1v11.5
			c0,0.1,0.1,0.1,0.1,0.1c0,0,0.1,0,0.1,0l5.8-5.8l0-0.1l0-0.1l-5.8-5.8c-0.1,0-0.2,0-0.2,0C146.8,242.3,146.8,242.3,146.8,242.4
			L146.8,242.4z M146.6,241.5h-0.1v13l0,0.1l0,0l0.1,0l0.1,0l6.5-6.5l0-0.1l0-0.1l-6.5-6.5C146.6,241.4,146.5,241.4,146.6,241.5
			c-0.1-0.1-0.1,0-0.1,0L146.6,241.5l-0.1,0.1l6.4,6.4l-6.4,6.4l0.1,0.1l0.1-0.1l0,0v-12.9H146.6l-0.1,0.1L146.6,241.5z"/>
		<path id="路径_398" class="st0" d="M159.4,229.5l6.1,6.1l-6,6l-6.1-6.1L159.4,229.5 M159.4,229l-6.5,6.5l6.6,6.6l6.5-6.5
			L159.4,229z"/>
		<path id="路径_399" class="st0" d="M159.3,229.6l6,6l-5.8,5.8l-5.9-5.9l5.9-5.9c0.1-0.1,0-0.1,0-0.2c-0.1,0-0.1,0-0.2,0l-6,6
			c-0.1,0.1-0.1,0.1,0,0.2l6.1,6.1l0.1,0l0.1,0l6-6l0-0.1l0-0.1l-6.1-6.1c-0.1-0.1-0.1,0-0.2,0C159.3,229.4,159.3,229.5,159.3,229.6
			L159.3,229.6z M159.4,229l-0.1-0.1l-6.5,6.5c-0.1,0.1-0.1,0.1,0,0.2l6.6,6.6l0.1,0l0.1,0l6.5-6.5l0-0.1l0-0.1l-6.6-6.6l-0.1,0
			l-0.1,0L159.4,229l-0.1,0.1l6.5,6.5l-6.3,6.3l-6.4-6.4l6.4-6.4L159.4,229L159.4,229L159.4,229z"/>
		<path id="路径_400" class="st0" d="M146.9,229.7l5.8,5.8l-5.8,5.8V229.7 M146.6,229v13l0,0l6.5-6.5L146.6,229z"/>
		<path id="路径_401" class="st0" d="M146.8,229.8l5.7,5.7l-5.4,5.4v-11.2c0-0.1-0.1-0.1-0.1-0.1s-0.1,0.1-0.1,0.1v11.5
			c0,0.1,0.1,0.1,0.1,0.1c0,0,0.1,0,0.1,0l5.8-5.8l0-0.1l0-0.1l-5.8-5.8c-0.1-0.1-0.1,0-0.2,0C146.8,229.7,146.8,229.8,146.8,229.8
			L146.8,229.8z M146.6,229h-0.1v13l0,0.1l0,0.1l0.1,0l0.1,0l6.5-6.5l0-0.1l0-0.1L146.6,229c0-0.2,0-0.2-0.1-0.1c0,0,0,0.1,0,0.1
			L146.6,229l-0.1,0.1l6.4,6.4l-6.4,6.4l0.1,0.1l0.1-0.1l0,0V229H146.6l-0.1,0.1L146.6,229z"/>
		<path id="路径_402" class="st0" d="M146.9,217.2l5.8,5.8l-5.8,5.8V217.2 M146.6,216.4v13l0,0.1l6.5-6.5L146.6,216.4z"/>
		<path id="路径_403" class="st0" d="M146.8,217.3l5.7,5.7l-5.4,5.4v-11.2c0-0.1-0.1-0.1-0.1-0.1S146.8,217.1,146.8,217.3
			L146.8,217.3l0,11.4c0,0.1,0.1,0.1,0.1,0.1c0,0,0.1,0,0.1,0l5.8-5.8l0-0.1l0-0.1l-5.8-5.8c-0.1,0-0.2,0-0.2,0
			C146.8,217.2,146.8,217.2,146.8,217.3L146.8,217.3z M146.6,216.4h-0.1v13l0,0.1l0,0.1l0.1,0l0.1,0l6.5-6.5l0-0.1l0-0.1l-6.5-6.5
			c-0.1-0.1-0.1-0.1-0.2,0c0,0,0,0.1,0,0.1L146.6,216.4l-0.1,0.1l6.4,6.4l-6.4,6.4l0.1,0.1l0.1-0.1l0,0v-12.9L146.6,216.4l-0.1,0.1
			L146.6,216.4z"/>
		<path id="路径_404" class="st0" d="M146.9,203.5l5.8,5.8l-5.8,5.8V203.5 M146.6,202.7v13l0,0l6.5-6.5L146.6,202.7z"/>
		<path id="路径_405" class="st0" d="M146.8,203.6l5.7,5.7l-5.4,5.4v-11.2c0-0.1-0.1-0.1-0.1-0.1S146.8,203.4,146.8,203.6
			L146.8,203.6l0,11.4c0,0.1,0.1,0.1,0.1,0.1c0,0,0.1,0,0.1,0l5.8-5.8l0-0.1l0-0.1l-5.8-5.8c-0.1-0.1-0.1-0.1-0.2,0
			S146.7,203.5,146.8,203.6C146.8,203.5,146.8,203.5,146.8,203.6L146.8,203.6z M146.6,202.7h-0.1v13l0,0.1l0,0l0.1,0l0.1,0l6.5-6.5
			l0-0.1l0-0.1l-6.5-6.5c-0.1-0.1-0.1-0.1-0.2,0c0,0,0,0.1,0,0.1L146.6,202.7l-0.1,0.1l6.4,6.4l-6.4,6.4l0.1,0.1l0.1-0.1l0,0v-12.9
			H146.6l-0.1,0.1L146.6,202.7z"/>
	</g>
	<g id="组_38">
		<path id="路径_406" class="st0" d="M276,264.2l-6.1-6.1l6-6l6.1,6.1L276,264.2 M276,264.6l6.5-6.5l-6.6-6.6l-6.5,6.5L276,264.6z
			"/>
		<path id="路径_407" class="st0" d="M276.1,264.1l-6-6l5.8-5.8l5.9,5.9l-5.9,5.9c0,0.1,0,0.2,0,0.2c0.1,0,0.1,0,0.2,0l6-6l0-0.1
			l0-0.1l-6.1-6.1c-0.1-0.1-0.1-0.1-0.2,0l-6,6c-0.1,0.1-0.1,0.1,0,0.2l6.1,6.1c0.1,0,0.2,0,0.2,0
			C276.1,264.2,276.1,264.1,276.1,264.1z M276,264.6l0.1,0.1l6.5-6.5l0-0.1l0-0.1l-6.6-6.6c-0.1-0.1-0.1-0.1-0.2,0l-6.5,6.5
			c-0.1,0.1-0.1,0.1,0,0.2l6.6,6.6l0.1,0l0.1,0L276,264.6l0.1-0.1l-6.5-6.5l6.3-6.3l6.4,6.4l-6.4,6.4L276,264.6l0.1-0.1L276,264.6z"
			/>
		<path id="路径_408" class="st0" d="M288.5,263.9l-5.8-5.8l5.8-5.8V263.9 M288.8,264.7v-13l0,0l-6.5,6.5L288.8,264.7z"/>
		<path id="路径_409" class="st0" d="M288.6,263.8l-5.7-5.7l5.4-5.4v11.2c0,0.1,0.1,0.1,0.1,0.1c0.1,0,0.1-0.1,0.1-0.1v-11.5
			c0-0.1-0.1-0.1-0.1-0.1c0,0-0.1,0-0.1,0l-5.8,5.8c-0.1,0.1-0.1,0.1,0,0.2l5.8,5.8c0.1,0,0.2,0,0.2,0
			C288.7,263.9,288.7,263.8,288.6,263.8L288.6,263.8z M288.8,264.7h0.1v-13l0-0.1l0,0c-0.1-0.1-0.1-0.1-0.2,0l-6.5,6.5
			c-0.1,0.1-0.1,0.1,0,0.2l6.5,6.5c0.1,0.1,0.1,0.1,0.2,0c0,0,0-0.1,0-0.1L288.8,264.7l0.1-0.1l-6.4-6.4l6.4-6.4l-0.1-0.1l-0.1,0.1
			l0,0v12.9L288.8,264.7l0.1-0.1L288.8,264.7z"/>
		<path id="路径_410" class="st0" d="M263.1,264.1l-6.1-6.1l6-6l6.1,6.1L263.1,264.1 M263.1,264.5l6.5-6.5l-6.6-6.6l-6.5,6.5
			L263.1,264.5z"/>
		<path id="路径_411" class="st0" d="M263.2,264l-6-6l5.8-5.8l5.9,5.9L263,264c-0.1,0.1,0,0.1,0,0.2c0.1,0,0.1,0,0.2,0l6-6l0-0.1
			l0-0.1l-6.1-6.1c-0.1-0.1-0.1-0.1-0.2,0l-6,6c-0.1,0.1-0.1,0.1,0,0.2l6.1,6.1c0.1,0.1,0.1,0.1,0.2,0S263.3,264,263.2,264
			C263.2,264,263.2,264,263.2,264L263.2,264z M263.1,264.5l0.1,0.1l6.5-6.5l0-0.1l0-0.1l-6.6-6.6c-0.1-0.1-0.1-0.1-0.2,0l-6.5,6.5
			c-0.1,0.1-0.1,0.1,0,0.2l6.6,6.6l0.1,0l0.1,0L263.1,264.5l0.1-0.1l-6.5-6.5l6.3-6.3l6.4,6.4L263.1,264.5L263.1,264.5l0.1-0.1
			L263.1,264.5z"/>
		<path id="路径_412" class="st0" d="M276,251.9l-6.1-6.1l6-6l6.1,6.1L276,251.9 M276,252.4l6.5-6.5l-6.6-6.6l-6.5,6.5L276,252.4z
			"/>
		<path id="路径_413" class="st0" d="M276.1,251.8l-6-6l5.8-5.8l5.9,5.9l-5.9,5.9c-0.1,0.1,0,0.1,0,0.2c0.1,0,0.1,0,0.2,0l6-6
			l0-0.1l0-0.1l-6.1-6.1c-0.1-0.1-0.1-0.1-0.2,0l-6,6c-0.1,0.1-0.1,0.1,0,0.2l6.1,6.1c0.1,0.1,0.1,0,0.2,0
			C276.1,251.9,276.1,251.9,276.1,251.8L276.1,251.8z M276,252.4l0.1,0.1l6.5-6.5l0-0.1l0-0.1l-6.6-6.6l-0.1,0l-0.1,0l-6.5,6.5
			c-0.1,0.1-0.1,0.1,0,0.2l6.6,6.6l0.1,0l0.1,0L276,252.4l0.1-0.1l-6.5-6.5l6.3-6.3l6.4,6.4l-6.4,6.4L276,252.4l0.1-0.1L276,252.4z"
			/>
		<path id="路径_414" class="st0" d="M288.5,251.6l-5.8-5.8l5.8-5.8V251.6 M288.8,252.4v-13l0-0.1l-6.5,6.5L288.8,252.4z"/>
		<path id="路径_415" class="st0" d="M288.6,251.5l-5.7-5.7l5.4-5.4v11.2c0,0.1,0.1,0.1,0.1,0.1c0.1,0,0.1-0.1,0.1-0.1v-11.5
			c0-0.1-0.1-0.1-0.1-0.1c0,0-0.1,0-0.1,0l-5.8,5.8c-0.1,0.1-0.1,0.1,0,0.2l5.8,5.8c0.1,0,0.2,0,0.2,0
			C288.7,251.7,288.7,251.6,288.6,251.5L288.6,251.5z M288.8,252.4h0.1v-13l0-0.1l0,0c-0.1-0.1-0.1-0.1-0.2,0l-6.5,6.5
			c-0.1,0.1-0.1,0.1,0,0.2l6.5,6.5c0.1,0.1,0.1,0.1,0.2,0c0,0,0-0.1,0-0.1L288.8,252.4l0.1-0.1l-6.4-6.4l6.4-6.4l-0.1-0.1l-0.1,0.1
			l0,0v12.9L288.8,252.4L288.8,252.4L288.8,252.4z"/>
		<path id="路径_416" class="st0" d="M276,239.7l-6.1-6.1l6-6l6.1,6.1L276,239.7 M276,240.1l6.5-6.5l-6.6-6.6l-6.5,6.5L276,240.1z
			"/>
		<path id="路径_417" class="st0" d="M276.1,239.6l-6-6l5.8-5.8l5.9,5.9l-5.9,5.9c0,0.1,0,0.2,0,0.2c0.1,0,0.1,0,0.2,0l6-6l0-0.1
			l0-0.1l-6.1-6.1c-0.1-0.1-0.1-0.1-0.2,0l-6,6c-0.1,0.1-0.1,0.1,0,0.2l6.1,6.1c0.1,0,0.2,0,0.2,0
			C276.1,239.7,276.1,239.6,276.1,239.6L276.1,239.6z M276,240.1l0.1,0.1l6.5-6.5l0-0.1l0-0.1L276,227c-0.1-0.1-0.1-0.1-0.2,0
			l-6.5,6.5c-0.1,0.1-0.1,0.1,0,0.2l6.6,6.6l0.1,0l0.1,0L276,240.1l0.1-0.1l-6.5-6.5l6.3-6.3l6.4,6.4l-6.4,6.4L276,240.1l0.1-0.1
			L276,240.1z"/>
		<path id="路径_418" class="st0" d="M288.5,239.4l-5.8-5.8l5.8-5.8V239.4 M288.8,240.2v-13l0,0l-6.5,6.5L288.8,240.2z"/>
		<path id="路径_419" class="st0" d="M288.6,239.3l-5.7-5.7l5.4-5.4v11.2c0,0.1,0.1,0.1,0.1,0.1c0.1,0,0.1-0.1,0.1-0.1v-11.5
			c0-0.1-0.1-0.1-0.1-0.1c0,0-0.1,0-0.1,0l-5.8,5.8c-0.1,0.1-0.1,0.1,0,0.2l5.8,5.8c0.1,0,0.2,0,0.2,0
			C288.7,239.4,288.7,239.4,288.6,239.3L288.6,239.3z M288.8,240.2h0.1v-13l0-0.1l0,0c-0.1-0.1-0.1-0.1-0.2,0c0,0,0,0,0,0l-6.5,6.5
			c-0.1,0.1-0.1,0.1,0,0.2l6.5,6.5c0.1,0.1,0.1,0.1,0.2,0c0,0,0-0.1,0-0.1L288.8,240.2l0.1-0.1l-6.4-6.4l6.4-6.4l-0.1-0.1l-0.1,0.1
			l0,0v12.9L288.8,240.2l0.1-0.1L288.8,240.2z"/>
		<path id="路径_420" class="st0" d="M288.6,227.2l-5.3-5.8l5.3-5.8V227.2 M288.8,227.9v-13l0-0.1l-5.9,6.5L288.8,227.9z"/>
		<path id="路径_421" class="st0" d="M288.7,227.1l-5.2-5.7l4.9-5.4v11.2c0,0.1,0.1,0.1,0.1,0.1
			C288.6,227.3,288.7,227.2,288.7,227.1l0-11.4c0-0.1-0.1-0.1-0.1-0.1c0,0-0.1,0-0.1,0l-5.3,5.8c-0.1,0.1-0.1,0.1,0,0.2l5.3,5.8
			c0.1,0.1,0.1,0.1,0.2,0C288.7,227.2,288.7,227.1,288.7,227.1L288.7,227.1L288.7,227.1z M288.9,227.9h0.1v-13l0-0.1l0-0.1l-0.1,0
			l-0.1,0l-5.9,6.5c-0.1,0.1-0.1,0.1,0,0.2l6,6.5c0.1,0.1,0.1,0.1,0.2,0c0,0,0-0.1,0-0.1L288.9,227.9l0.1-0.1l-5.9-6.4l5.9-6.4
			l-0.1-0.1l-0.1,0.1l0,0v12.9L288.9,227.9l0.1-0.1L288.9,227.9z"/>
		<path id="路径_422" class="st0" d="M288.5,212.9l-5.8-5.8l5.8-5.8V212.9 M288.8,213.7v-13l0,0l-6.5,6.5L288.8,213.7z"/>
		<path id="路径_423" class="st0" d="M288.6,212.8l-5.7-5.7l5.4-5.4v11.2c0,0.1,0.1,0.1,0.1,0.1c0.1,0,0.1-0.1,0.1-0.1v-11.5
			c0-0.1-0.1-0.1-0.1-0.1c0,0-0.1,0-0.1,0l-5.8,5.8c-0.1,0.1-0.1,0.1,0,0.2l5.8,5.8c0.1,0,0.2,0,0.2,0
			C288.7,213,288.7,212.9,288.6,212.8L288.6,212.8z M288.8,213.7h0.1v-13l0-0.1l0,0c-0.1-0.1-0.1-0.1-0.2,0l-6.5,6.5
			c-0.1,0.1-0.1,0.1,0,0.2l6.5,6.5c0.1,0.1,0.1,0.1,0.2,0c0,0,0-0.1,0-0.1L288.8,213.7l0.1-0.1l-6.4-6.4l6.4-6.4l-0.1-0.1l-0.1,0.1
			l0,0v12.9L288.8,213.7L288.8,213.7L288.8,213.7z"/>
		<path id="路径_424" class="st0" d="M276,276.7l-6.1-6.1l6-6l6.1,6.1L276,276.7 M276,277.2l6.5-6.5l-6.6-6.6l-6.5,6.5L276,277.2z
			"/>
		<path id="路径_425" class="st0" d="M276.1,276.6l-6-6l5.8-5.8l5.9,5.9l-5.9,5.9c0,0.1,0,0.2,0,0.2c0.1,0,0.1,0,0.2,0l6-6l0-0.1
			l0-0.1l-6.1-6.1c-0.1-0.1-0.1-0.1-0.2,0l-6,6c-0.1,0.1-0.1,0.1,0,0.2l6.1,6.1c0.1,0,0.2,0,0.2,0
			C276.1,276.7,276.1,276.7,276.1,276.6z M276,277.2l0.1,0.1l6.5-6.5l0-0.1l0-0.1L276,264c-0.1-0.1-0.1-0.1-0.2,0l-6.5,6.5
			c-0.1,0.1-0.1,0.1,0,0.2l6.6,6.6l0.1,0l0.1,0L276,277.2l0.1-0.1l-6.5-6.5l6.3-6.3l6.4,6.4l-6.4,6.4L276,277.2L276,277.2L276,277.2
			z"/>
		<path id="路径_426" class="st0" d="M288.5,276.4l-5.8-5.8l5.8-5.8V276.4 M288.8,277.2v-13l0,0l-6.5,6.5L288.8,277.2z"/>
		<path id="路径_427" class="st0" d="M288.6,276.3l-5.7-5.7l5.4-5.4v11.2c0,0.1,0.1,0.1,0.1,0.1c0.1,0,0.1-0.1,0.1-0.1v-11.5
			c0-0.1-0.1-0.1-0.1-0.1c0,0-0.1,0-0.1,0l-5.8,5.8c-0.1,0.1-0.1,0.1,0,0.2l5.8,5.8c0.1,0.1,0.1,0,0.2,0
			C288.7,276.5,288.7,276.4,288.6,276.3L288.6,276.3z M288.8,277.2h0.1v-13l0-0.1l0,0c-0.1-0.1-0.1-0.1-0.2,0l-6.5,6.5
			c-0.1,0.1-0.1,0.1,0,0.2l6.5,6.5c0.1,0.1,0.1,0.1,0.2,0c0,0,0-0.1,0-0.1L288.8,277.2l0.1-0.1l-6.4-6.4l6.4-6.4l-0.1-0.1l-0.1,0.1
			l0,0v12.9L288.8,277.2L288.8,277.2L288.8,277.2z"/>
		<path id="路径_428" class="st0" d="M276,289.3l-6.1-6.1l6-6l6.1,6.1L276,289.3 M276,289.7l6.5-6.5l-6.6-6.6l-6.5,6.5L276,289.7z
			"/>
		<path id="路径_429" class="st0" d="M276.1,289.2l-6-6l5.8-5.8l5.9,5.9l-5.9,5.9c-0.1,0.1,0,0.1,0,0.2c0.1,0,0.1,0,0.2,0l6-6
			l0-0.1l0-0.1L276,277c-0.1-0.1-0.1-0.1-0.2,0l-6,6c-0.1,0.1-0.1,0.1,0,0.2l6.1,6.1c0.1,0.1,0.1,0,0.2,0
			C276.1,289.3,276.1,289.2,276.1,289.2z M276,289.7l0.1,0.1l6.5-6.5l0-0.1l0-0.1l-6.6-6.6c-0.1-0.1-0.1-0.1-0.2,0l-6.5,6.5
			c-0.1,0.1-0.1,0.1,0,0.2l6.6,6.6l0.1,0l0.1,0L276,289.7l0.1-0.1l-6.5-6.5l6.3-6.3l6.4,6.4l-6.4,6.4L276,289.7l0.1-0.1L276,289.7z"
			/>
		<path id="路径_430" class="st0" d="M288.5,289l-5.8-5.8l5.8-5.8V289 M288.8,289.8v-13l0,0l-6.5,6.5L288.8,289.8z"/>
		<path id="路径_431" class="st0" d="M288.6,288.9l-5.7-5.7l5.4-5.4V289c0,0.1,0.1,0.1,0.1,0.1c0.1,0,0.1-0.1,0.1-0.1v-11.5
			c0-0.1-0.1-0.1-0.1-0.1c0,0-0.1,0-0.1,0l-5.8,5.8c-0.1,0.1-0.1,0.1,0,0.2l5.8,5.8c0.1,0,0.2,0,0.2,0
			C288.7,289,288.7,289,288.6,288.9L288.6,288.9z M288.8,289.8h0.1v-13l0-0.1l0,0c-0.1-0.1-0.1-0.1-0.2,0l-6.5,6.5
			c-0.1,0.1-0.1,0.1,0,0.2l6.5,6.5c0.1,0.1,0.1,0.1,0.2,0c0,0,0-0.1,0-0.1L288.8,289.8l0.1-0.1l-6.4-6.4l6.4-6.4l-0.1-0.1l-0.1,0.1
			l0,0v12.9L288.8,289.8L288.8,289.8L288.8,289.8z"/>
		<path id="路径_432" class="st0" d="M288.5,301.6l-5.8-5.8l5.8-5.8V301.6 M288.8,302.3v-13l0,0l-6.5,6.5L288.8,302.3z"/>
		<path id="路径_433" class="st0" d="M288.6,301.5l-5.7-5.7l5.4-5.4v11.2c0,0.1,0.1,0.1,0.1,0.1c0.1,0,0.1-0.1,0.1-0.1V290
			c0-0.1-0.1-0.1-0.1-0.1c0,0-0.1,0-0.1,0l-5.8,5.8c-0.1,0.1-0.1,0.1,0,0.2l5.8,5.8c0.1,0.1,0.1,0,0.2,0
			C288.7,301.6,288.7,301.5,288.6,301.5L288.6,301.5z M288.8,302.3h0.1v-13l0-0.1l0,0c-0.1-0.1-0.1-0.1-0.2,0l-6.5,6.5
			c-0.1,0.1-0.1,0.1,0,0.2l6.5,6.5c0.1,0.1,0.1,0.1,0.2,0c0,0,0-0.1,0-0.1H288.8l0.1-0.1l-6.4-6.4l6.4-6.4l-0.1-0.1l-0.1,0.1l0,0
			v12.9L288.8,302.3l0.1-0.1L288.8,302.3z"/>
		<path id="路径_434" class="st0" d="M288.5,315.3l-5.8-5.8l5.8-5.8V315.3 M288.8,316.1v-13l0,0l-6.5,6.5L288.8,316.1z"/>
		<path id="路径_435" class="st0" d="M288.6,315.2l-5.7-5.7l5.4-5.4v11.2c0,0.1,0.1,0.1,0.1,0.1c0.1,0,0.1-0.1,0.1-0.1v-11.5
			c0-0.1-0.1-0.1-0.1-0.1c0,0-0.1,0-0.1,0l-5.8,5.8c-0.1,0.1-0.1,0.1,0,0.2l5.8,5.8c0.1,0.1,0.1,0.1,0.2,0S288.7,315.3,288.6,315.2
			C288.6,315.2,288.6,315.2,288.6,315.2L288.6,315.2z M288.8,316.1h0.1v-13l0-0.1l0,0c-0.1-0.1-0.1-0.1-0.2,0c0,0,0,0,0,0l-6.5,6.5
			c-0.1,0.1-0.1,0.1,0,0.2l6.5,6.5c0.1,0.1,0.1,0.1,0.2,0c0,0,0-0.1,0-0.1L288.8,316.1l0.1-0.1l-6.4-6.4l6.4-6.4l-0.1-0.1l-0.1,0.1
			l0,0v12.9L288.8,316.1l0.1-0.1L288.8,316.1z"/>
	</g>
</g>
</svg>
