<?xml version="1.0" encoding="utf-8"?>
<!-- Generator: Adobe Illustrator 25.1.0, SVG Export Plug-In . SVG Version: 6.00 Build 0)  -->
<svg version="1.1" id="圖層_1" xmlns="http://www.w3.org/2000/svg" xmlns:xlink="http://www.w3.org/1999/xlink" x="0px" y="0px"
	 viewBox="0 0 113.4 113.4" style="enable-background:new 0 0 113.4 113.4;" xml:space="preserve">
<style type="text/css">
	.st0{fill:#38470B;}
</style>
<path id="icons8-air_shaft" class="st0" d="M56.7,0.1c-0.1,0-0.3,0-0.4,0H0.2v21.1c0,0.3,0,0.6,0,0.9v18c0,0.3,0,0.6,0,0.9V62h56.1
	c0.3,0,0.6,0,0.9,0h56.1V40.9c0-0.3,0-0.6,0-0.9v-18c0-0.3,0-0.6,0-0.9V0.1H57.1C57,0.1,56.8,0.1,56.7,0.1z M5.5,5.5H54v13.5H5.5
	V5.5z M59.4,5.5h48.5v13.5H59.4L59.4,5.5z M5.5,24.3H54v13.5H5.5V24.3z M59.4,24.3h48.5v13.5H59.4L59.4,24.3z M5.5,43.2H54v13.5H5.5
	V43.2z M59.4,43.2h48.5v13.5H59.4L59.4,43.2z M21.7,69L9,81.6c-1.1,1-1.1,2.7-0.1,3.8c1,1.1,2.7,1.1,3.8,0.1c0,0,0.1-0.1,0.1-0.1
	l6.2-6.2v12.3c0,8.9-7.2,16.1-16.1,16.1c0,0,0,0-0.1,0c-1.5-0.1-2.8,1-2.9,2.5c-0.1,1.5,1,2.8,2.5,2.9c0.1,0,0.2,0,0.3,0
	c11.9,0,21.5-9.6,21.5-21.5V79.3l6.2,6.2c1,1.1,2.7,1.1,3.8,0.1c1.1-1,1.1-2.7,0.1-3.8c0,0-0.1-0.1-0.1-0.1L21.7,69z M56.7,69
	L44,81.6c-1.1,1-1.1,2.7-0.1,3.8c1,1.1,2.7,1.1,3.8,0.1c0,0,0.1-0.1,0.1-0.1l6.2-6.2v31.2c-0.1,1.5,1,2.8,2.5,2.9
	c1.5,0.1,2.8-1,2.9-2.5c0-0.1,0-0.2,0-0.3V79.3l6.2,6.2c1,1.1,2.7,1.1,3.8,0.1c1.1-1,1.1-2.7,0.1-3.8c0,0-0.1-0.1-0.1-0.1L56.7,69z
	 M91.7,69L79,81.6c-1.1,1-1.1,2.7-0.1,3.8c1,1.1,2.7,1.1,3.8,0.1c0,0,0.1-0.1,0.1-0.1l6.2-6.2v12.3c0,11.9,9.6,21.5,21.5,21.5
	c1.5,0.1,2.8-1,2.9-2.5c0.1-1.5-1-2.8-2.5-2.9c-0.1,0-0.2,0-0.3,0c-8.9,0-16.1-7.2-16.1-16.1c0,0,0,0,0-0.1V79.3l6.2,6.2
	c1,1.1,2.7,1.1,3.8,0.1c1.1-1,1.1-2.7,0.1-3.8c0,0-0.1-0.1-0.1-0.1L91.7,69z"/>
</svg>
