<?xml version="1.0" encoding="utf-8"?>
<!-- Generator: Adobe Illustrator 25.1.0, SVG Export Plug-In . SVG Version: 6.00 Build 0)  -->
<svg version="1.1" id="圖層_1" xmlns="http://www.w3.org/2000/svg" xmlns:xlink="http://www.w3.org/1999/xlink" x="0px" y="0px"
	 viewBox="0 0 113.4 113.4" style="enable-background:new 0 0 113.4 113.4;" xml:space="preserve">
<style type="text/css">
	.st0{fill:#38470B;}
</style>
<path id="icons8-ok" class="st0" d="M56.7,0C25.4,0,0,25.4,0,56.7s25.4,56.7,56.7,56.7s56.7-25.4,56.7-56.7S88,0,56.7,0z M88.4,45.9
	L52.7,81.6c-1.8,1.8-4.8,1.8-6.7,0c0,0,0,0,0,0L29.7,65.3c-1.8-1.8-1.8-4.8,0-6.7s4.8-1.8,6.7,0l13,13l32.4-32.4
	c1.8-1.8,4.8-1.8,6.7,0C90.2,41,90.2,44,88.4,45.9z"/>
</svg>
