<?xml version="1.0" encoding="utf-8"?>
<!-- Generator: Adobe Illustrator 25.1.0, SVG Export Plug-In . SVG Version: 6.00 Build 0)  -->
<svg version="1.1" id="圖層_1" xmlns="http://www.w3.org/2000/svg" xmlns:xlink="http://www.w3.org/1999/xlink" x="0px" y="0px"
	 viewBox="0 0 113.4 113.4" style="enable-background:new 0 0 113.4 113.4;" xml:space="preserve">
<style type="text/css">
	.st0{fill:#38470B;}
</style>
<g id="surface1" transform="translate(0.006 0.009)">
	<path id="路径_450" class="st0" d="M24.7,0c-0.5,0.1-1,0.3-1.3,0.6L1,23c-0.1,0.1-0.2,0.2-0.4,0.3c-0.1,0-0.1,0.1-0.1,0.1
		c-0.1,0.1-0.1,0.1-0.1,0.2c-0.1,0.1-0.2,0.3-0.2,0.4C0.1,24.3,0,24.5,0,24.7c0,0.2,0,0.3,0,0.5v85.9c0,1.3,1,2.3,2.3,2.3h6.8
		c1.3,0,2.3-1,2.3-2.3V72.6h27.2v4.5H13.6v4.5h24.9v4.5H13.6v4.5h24.9v4.5H13.6v4.5h24.9v4.5H13.6v4.5h24.9v2.3c0,1.3,1,2.3,2.3,2.3
		h6.8c1.3,0,2.3-1,2.3-2.3V70.6c0-0.1,0-0.2,0-0.4v-45c0-0.1,0-0.2,0-0.4v-0.4c0-0.1,0-0.2-0.1-0.3c0-0.1-0.1-0.2-0.1-0.4l-0.1-0.1
		c-0.1-0.2-0.2-0.3-0.3-0.4v-0.1l-0.1-0.1h-0.1c0-0.1-0.1-0.1-0.1-0.1L26.6,0.6C26.1,0.1,25.4-0.1,24.7,0z M24.9,5.5l17.1,17.1H7.8
		L24.9,5.5z M4.5,27.2h40.8V68H4.5V27.2z M24.9,31.8c-8.8,0-15.9,7.1-15.9,15.9s7.1,15.9,15.9,15.9s15.9-7.1,15.9-15.9
		C40.8,38.9,33.7,31.8,24.9,31.8z M24.9,36.3c6.3,0,11.3,5.1,11.3,11.3S31.2,59,24.9,59s-11.3-5.1-11.3-11.3
		C13.6,41.4,18.7,36.3,24.9,36.3z M52.2,45.4v4.5c6.5-0.5,12.8,2.2,16.9,7.2c3.7,5.1,6.4,10.7,8.1,16.7c1.8,6.4,4.6,12.5,8.3,18.1
		c4.4,5.9,11.5,9.2,18.8,8.9c2.6,0.3,4.6,2.5,4.5,5.2v2.8c-12.5-0.3-21.1-2.6-26.8-5.9c-5.1-3-9.2-7.6-11.5-13
		c-2.3-4.9-3.6-9.9-5.9-14.1c-2.3-4.7-7.2-7.7-12.5-7.6v4.5c3.7-0.4,7.1,1.7,8.4,5.2c1.9,3.4,3.3,8.6,5.8,14
		c2.8,6.3,7.4,11.5,13.3,15c6.9,4.1,16.8,6.7,31.4,6.7c1.3,0,2.3-1,2.3-2.3v-5.2c0.1-5.2-3.9-9.5-9.1-9.7c-6,0.4-11.7-2.2-15.2-7.1
		c-3.4-5.2-5.9-10.8-7.6-16.8c-1.9-6.6-4.9-12.7-8.9-18.2C67.5,48.2,59.9,44.9,52.2,45.4z M4.5,72.6h2.3v36.3H4.5V72.6z M43.1,72.6
		h2.3v36.3h-2.3L43.1,72.6z"/>
</g>
</svg>
