<?xml version="1.0" encoding="utf-8"?>
<!-- Generator: Adobe Illustrator 25.1.0, SVG Export Plug-In . SVG Version: 6.00 Build 0)  -->
<svg version="1.1" id="圖層_1" xmlns="http://www.w3.org/2000/svg" xmlns:xlink="http://www.w3.org/1999/xlink" x="0px" y="0px"
	 viewBox="0 0 113.4 113.4" style="enable-background:new 0 0 113.4 113.4;" xml:space="preserve">
<style type="text/css">
	.st0{fill:#38470B;}
</style>
<path id="icons8-cancel" class="st0" d="M56.6,0C25.3,0,0,25.3,0,56.6s25.3,56.6,56.6,56.6s56.6-25.3,56.6-56.6S87.9,0,56.6,0z
	 M63.3,56.6l15.5,15.5c1.8,1.8,1.8,4.8,0,6.7c-1.8,1.8-4.8,1.8-6.7,0l0,0L56.6,63.3L41.1,78.8c-1.8,1.8-4.8,1.8-6.7,0
	c-1.8-1.8-1.8-4.8,0-6.7l0,0l15.5-15.5L34.4,41.1c-1.8-1.8-1.8-4.8,0-6.7c1.8-1.8,4.8-1.8,6.7,0l0,0l15.5,15.5l15.5-15.5
	c1.8-1.8,4.8-1.8,6.7,0c1.8,1.8,1.8,4.8,0,6.7L63.3,56.6z"/>
</svg>
