<?xml version="1.0" encoding="utf-8"?>
<!-- Generator: Adobe Illustrator 25.1.0, SVG Export Plug-In . SVG Version: 6.00 Build 0)  -->
<svg version="1.1" id="圖層_1" xmlns="http://www.w3.org/2000/svg" xmlns:xlink="http://www.w3.org/1999/xlink" x="0px" y="0px"
	 viewBox="0 0 113.4 113.4" style="enable-background:new 0 0 113.4 113.4;" xml:space="preserve">
<style type="text/css">
	.st0{fill:#38470B;}
</style>
<g id="surface1" transform="translate(0.044 0.002)">
	<path id="路径_458" class="st0" d="M25.9,0.1c-0.6,0.1-1.2,0.4-1.6,0.9L19,7.8h-9c-1.3,0-2.3,1-2.3,2.3v9L1,24.3
		c-1,0.8-1.1,2.2-0.3,3.2c0.1,0.1,0.2,0.2,0.3,0.3l6.8,5.3v6.7c0,1.3,1,2.3,2.3,2.3s2.3-1,2.3-2.3c0,0,0,0,0,0V32
		c0-0.7-0.4-1.4-0.9-1.8L6,26.1l5.4-4.1c0.6-0.4,0.9-1.1,0.9-1.8v-7.9h7.9c0.7,0,1.4-0.4,1.8-0.9L26.1,6l4.1,5.4
		c0.4,0.6,1.1,0.9,1.8,0.9h7.9v7.9c0,0.7,0.4,1.4,0.9,1.8l5.4,4.1l-5.4,4.1c-1,0.8-1.2,2.2-0.4,3.2s2.2,1.2,3.2,0.4l0,0l7.7-6
		c1-0.8,1.1-2.2,0.3-3.2c-0.1-0.1-0.2-0.2-0.3-0.3l-6.8-5.3v-9c0-1.3-1-2.3-2.3-2.3l0,0h-9L27.9,1C27.4,0.4,26.7,0,25.9,0.1z
		 M26.1,13.7c-6.9,0-12.5,5.6-12.5,12.5s5.6,12.5,12.5,12.5S38.5,33,38.5,26.1l0,0C38.5,19.2,33,13.7,26.1,13.7L26.1,13.7z
		 M26.1,18.2c4.4,0,7.9,3.6,7.9,7.9s-3.6,7.9-7.9,7.9s-7.9-3.6-7.9-7.9C18.1,21.8,21.6,18.2,26.1,18.2C26,18.2,26.1,18.2,26.1,18.2
		L26.1,18.2z M72.6,36.2c-0.1,0-0.2,0-0.3,0.1h-0.1c-0.1,0-0.2,0-0.3,0C26.7,36.5,1,53.4,1,53.4c-0.6,0.4-1,1.1-1,1.9v33.5
		c-0.1,0.4-0.1,0.9,0,1.3V111c0,1.3,1,2.3,2.3,2.3H111c1.3,0,2.3-1,2.3-2.3V41.3c0.1-0.6,0-1.3-0.4-1.8c0,0,0-0.1-0.1-0.1
		c-0.2-0.3-0.5-0.5-0.8-0.6l-0.1-0.1h-0.1l-0.1-0.1h-0.1l-0.1-0.1h-0.2c-0.2,0-0.4-0.1-0.6-0.1c-0.9-0.1-8.2-1.1-19.6-1.7
		c-0.4-0.1-0.8-0.2-1.2-0.1h-0.1c-5-0.3-10.6-0.4-16.7-0.4C73,36.3,72.8,36.2,72.6,36.2L72.6,36.2z M73,40.8c2.8,0,5.4,0.1,7.9,0.1
		c-5.6,3.1-11,6.8-15.9,10.9c-18.1,15.2-32,34.8-40.5,56.9h-20V90.2C27.6,55.5,71.8,41.2,73,40.8L73,40.8z M90.5,41.3
		c1.9,0.1,4,0.2,5.7,0.4c-4.1,3.7-7.9,7.7-11.3,12C72,70.3,62.1,88.9,55.5,108.8h-26c8.2-20.7,21.4-39,38.4-53.4
		C74.7,49.6,82.3,44.8,90.5,41.3L90.5,41.3z M59.1,41.4c-14.4,6.4-38.1,19.4-54.5,41V56.6C6.8,55.2,25.6,43.9,59.1,41.4L59.1,41.4z
		 M102.7,42.2c2.1,0.2,3.7,0.4,4.7,0.6c-3.8,7.4-14,29.2-22.6,66H60.4c6.4-18.8,15.8-36.5,28-52.2C92.5,51.1,97.3,46.3,102.7,42.2
		L102.7,42.2z M108.7,50.4v58.4H89.4C93.9,88.8,100.4,69.2,108.7,50.4L108.7,50.4z"/>
</g>
</svg>
