<?xml version="1.0" encoding="utf-8"?>
<!-- Generator: Adobe Illustrator 25.1.0, SVG Export Plug-In . SVG Version: 6.00 Build 0)  -->
<svg version="1.1" id="圖層_1" xmlns="http://www.w3.org/2000/svg" xmlns:xlink="http://www.w3.org/1999/xlink" x="0px" y="0px"
	 viewBox="0 0 113.4 113.4" style="enable-background:new 0 0 113.4 113.4;" xml:space="preserve">
<style type="text/css">
	.st0{fill:#38470B;}
</style>
<path id="icons8-poolside_bar" class="st0" d="M15.1,5c-1.3,0-2.3,0.9-2.4,2.2c-0.2,1.7-0.3,8.4-0.3,9.6c0,0.9,0,1.7,0.1,2.6
	c0,0.2-0.1,0.3-0.1,0.5c0,0.4,0.1,0.7,0.2,1c1.3,12.1,8.6,20,19.4,21v17.4h-7.4c-1.4,0-2.5,1-2.5,2.4c0,1.4,1,2.5,2.4,2.5
	c0.1,0,0.1,0,0.2,0h19.7c1.4,0,2.4-1.2,2.4-2.5c0-1.3-1.1-2.3-2.4-2.4H37V41.8l0,0c10.9-1,18.1-8.9,19.4-21c0.2-0.3,0.2-0.7,0.2-1
	c0-0.2,0-0.3-0.1-0.5c0.1-0.8,0.1-1.7,0.1-2.6c0-1.2-0.1-7.9-0.3-9.6C56.3,5.9,55.2,5,54,5H15.1z M66.5,5c-1.4,0-2.5,1.1-2.5,2.5
	c0,0.1,0,0.2,0,0.2L69,61.8c0.1,1.3,1.2,2.2,2.5,2.2h22.2c1.3,0,2.3-1,2.5-2.2L101,7.7c0.1-1.4-0.9-2.5-2.2-2.7c-0.1,0-0.2,0-0.2,0
	H66.5z M17.5,9.9h34.2c0.1,2.3,0.1,5.7,0.1,6.8c0,0.2,0,0.4,0,0.6H17.3c0-0.2,0-0.4,0-0.6C17.3,15.6,17.4,12.3,17.5,9.9z M69.2,9.9
	h26.6l-0.7,7.4H69.9L69.2,9.9z M17.8,22.2h33.5C49.6,31.5,43.5,37,34.5,37S19.5,31.5,17.8,22.2z M70.4,22.2h24.4l-3.4,36.9H73.7
	L70.4,22.2z M2.5,69C1.2,69,0,70,0,71.4c0,1.4,1,2.5,2.4,2.5c0.1,0,0.1,0,0.2,0h108.3c1.4,0,2.4-1.2,2.4-2.5c0-1.3-1.1-2.3-2.4-2.4
	H2.5z M16.1,83.8c-0.3,0-0.5,0.1-0.8,0.2c0,0-0.1,0-0.1,0c-0.1,0.1-0.3,0.1-0.4,0.2c-0.2,0.1-0.3,0.2-0.4,0.3
	c-3.3,2.8-7.5,4.3-11.8,4.2c-1.4,0-2.5,1-2.5,2.4c0,1.4,1,2.5,2.4,2.5c0.1,0,0.1,0,0.2,0c4.8,0,9.6-1.4,13.5-4.2
	c8.1,5.7,18.9,5.7,27.1,0c8.1,5.7,18.9,5.7,27.1,0c8.1,5.7,18.9,5.7,27.1,0c4,2.8,8.7,4.3,13.5,4.2c1.4,0,2.4-1.2,2.4-2.5
	c0-1.3-1.1-2.3-2.4-2.4c-4.3,0.1-8.5-1.4-11.8-4.2c-0.7-0.7-1.7-0.9-2.5-0.6c0,0-0.1,0-0.1,0c-0.1,0.1-0.3,0.1-0.4,0.2
	c-0.2,0.1-0.3,0.2-0.4,0.3c-6.9,5.6-16.7,5.6-23.6,0c-0.7-0.7-1.7-0.9-2.5-0.6c0,0-0.1,0-0.1,0c-0.1,0.1-0.3,0.1-0.4,0.2
	c-0.2,0.1-0.3,0.2-0.4,0.3c-3.3,2.8-7.5,4.3-11.8,4.2c-4.3,0.1-8.5-1.4-11.8-4.2c-0.7-0.7-1.7-0.9-2.5-0.6c0,0-0.1,0-0.1,0
	c-0.1,0.1-0.3,0.1-0.4,0.2c-0.2,0.1-0.3,0.2-0.4,0.3c-3.3,2.8-7.5,4.3-11.8,4.2c-4.3,0.1-8.5-1.4-11.8-4.2
	C17.4,84,16.7,83.8,16.1,83.8z M16.1,98.5c-0.5,0-1,0.2-1.4,0.5c-0.1,0.1-0.2,0.1-0.3,0.2c-3.3,2.8-7.5,4.3-11.8,4.2
	c-1.4,0-2.5,1-2.5,2.4c0,1.4,1,2.5,2.4,2.5c0.1,0,0.1,0,0.2,0c4.8,0,9.6-1.4,13.5-4.2c8.1,5.7,18.9,5.7,27.1,0
	c8.1,5.7,18.9,5.7,27.1,0c8.1,5.7,18.9,5.7,27.1,0c4,2.8,8.7,4.3,13.5,4.2c1.4,0,2.5-1,2.5-2.4c0-1.4-1-2.5-2.4-2.5
	c-0.1,0-0.1,0-0.2,0c-4.3,0.1-8.5-1.4-11.8-4.2c-0.7-0.7-1.7-0.9-2.5-0.6c0,0-0.1,0-0.1,0c-0.1,0.1-0.3,0.1-0.4,0.2
	c-0.2,0.1-0.3,0.2-0.4,0.3c-6.9,5.6-16.7,5.6-23.6,0c-0.7-0.7-1.7-0.9-2.5-0.6c0,0-0.1,0-0.1,0c-0.1,0.1-0.3,0.1-0.4,0.2
	c-0.2,0.1-0.3,0.2-0.4,0.3c-3.3,2.8-7.5,4.3-11.8,4.2c-4.3,0.1-8.5-1.4-11.8-4.2c-0.8-0.8-2.2-0.9-3.1-0.2c-0.1,0.1-0.2,0.1-0.3,0.2
	c-3.3,2.8-7.5,4.3-11.8,4.2c-4.3,0.1-8.5-1.4-11.8-4.2C17.4,98.8,16.7,98.5,16.1,98.5z"/>
</svg>
