<?xml version="1.0" encoding="utf-8"?>
<!-- Generator: Adobe Illustrator 25.1.0, SVG Export Plug-In . SVG Version: 6.00 Build 0)  -->
<svg version="1.1" id="圖層_1" xmlns="http://www.w3.org/2000/svg" xmlns:xlink="http://www.w3.org/1999/xlink" x="0px" y="0px"
	 viewBox="0 0 113.4 113.4" style="enable-background:new 0 0 113.4 113.4;" xml:space="preserve">
<style type="text/css">
	.st0{fill:#FCFFFF;}
</style>
<path id="icons8-search_chat" class="st0" d="M11.9,2.4C5.3,2.4,0,7.7,0,14.3v57c0,6.6,5.3,11.9,11.9,11.9h9.8
	c1.3,5.7-1.3,11.6-6.3,14.6c-1.1,0.7-1.5,2.1-0.8,3.3c0.4,0.7,1.2,1.2,2,1.2c12.4,0.2,23.5-7.4,27.8-19h8.3
	c-0.3-1.6-0.4-3.2-0.4-4.8h-9.5c-1,0-1.9,0.6-2.2,1.6c-2.5,8-8.8,14.2-16.9,16.5c2.9-4.8,3.8-10.6,2.4-16.1
	c-0.2-1.1-1.2-1.9-2.3-1.9H11.9c-3.9,0-7.1-3.2-7.1-7.1v-57c0-3.9,3.2-7.1,7.1-7.1h85.5c3.9,0,7.1,3.2,7.1,7.1v48.4
	c2.3,3.4,3.8,7.3,4.4,11.4c0.2-0.9,0.4-1.8,0.4-2.8v-57c0-6.6-5.3-11.9-11.9-11.9H11.9z M80.8,54.7C67.7,54.7,57,65.3,57,78.4
	c0,13.1,10.6,23.8,23.7,23.8c5.5,0,10.8-1.9,15.1-5.4L110,111l3.4-3.4L99.2,93.5c8.3-10.1,6.8-25.1-3.3-33.4
	C91.6,56.6,86.3,54.7,80.8,54.7L80.8,54.7z M80.8,59.4c10.5,0,19,8.5,19,19s-8.5,19-19,19c-10.5,0-19-8.5-19-19c0,0,0,0,0,0
	C61.8,67.9,70.2,59.4,80.8,59.4C80.8,59.4,80.8,59.4,80.8,59.4z"/>
</svg>
