<?xml version="1.0" encoding="utf-8"?>
<!-- Generator: Adobe Illustrator 25.1.0, SVG Export Plug-In . SVG Version: 6.00 Build 0)  -->
<svg version="1.1" id="圖層_1" xmlns="http://www.w3.org/2000/svg" xmlns:xlink="http://www.w3.org/1999/xlink" x="0px" y="0px"
	 viewBox="0 0 113.4 113.4" style="enable-background:new 0 0 113.4 113.4;" xml:space="preserve">
<style type="text/css">
	.st0{fill:#FCFFFF;}
</style>
<path id="路径_461" class="st0" d="M0,0.1l61.1,61.1l36.4-36.4L73.1,0.1h-6.4l13.2,13.2c2.3,2.3,1.6,4.5,0.4,7.6
	c-0.5,1.2-0.8,2.6-0.9,3.9c0.2,1.6,0.6,3.1,1.3,4.5c1.1,2.5,1.8,4.5,0.9,5.4L67.9,48.5c-0.5,0.5-2.1-0.3-3-0.7
	c-1.1-0.5-2.2-0.8-3.4-0.9c-1,0.2-2,0.4-2.9,0.7c-2.3,0.9-3.4,1.1-4.5,0L13.6,7.1c-1.4-1.4-0.9-2.3,0-4.5C13.8,1.8,14,0.9,14,0.1
	H9.5c0,0.2-0.2,0.5-0.2,0.9C9,1.4,8.8,1.9,8.6,2.4L6.3,0.1L0,0.1z M35.5,0.1c-7.2,7.9-7.6,19.4-0.8,26.3c3.2,3.1,7.3,4.8,11.7,5
	C52,31.3,57.2,29,61.1,25c7.1-6.4,8.4-17,3.2-24.9h-6.4c0.6,0.2,1.2,0.6,1.6,1.1c5.2,5.2,4.7,14.3-1.4,20.4c-3.1,3.1-7.2,4.9-11.5,5
	c-3.3,0-6.5-1.3-8.8-3.6c-5.2-5.2-4.7-14.3,1.4-20.4c1.1-0.9,2.2-1.7,3.4-2.5H35.5z M12,18.9l26.5,42.3l9.8-6.1L40,46.9
	c-0.5,0-0.9,0.1-1.3,0.3c-2.5,0.5-3.6,0.5-4.5-1.1L26,33.1L12,18.9z M85.6,19.1l5.7,5.7l-5.5,5.5c-0.4-1-0.8-2-1.1-3
	c-0.4-0.8-0.7-1.6-0.9-2.5c0.2-0.7,0.4-1.4,0.7-2.1C85,21.6,85.4,20.4,85.6,19.1L85.6,19.1z M67.8,25.9c-1.9,0-3.7,0.7-5.1,2.1
	c-1.3,1.3-2,3.1-2,5c0.1,2,0.9,3.8,2.3,5.2c2.8,2.6,7.1,2.6,9.9,0c2.7-2.9,2.7-7.3,0-10.2C71.5,26.6,69.7,25.9,67.8,25.9L67.8,25.9z
	 M67.9,30.5c0.7,0,1.3,0.2,1.8,0.6c1.1,1,1.1,2.7,0.1,3.8c0,0-0.1,0.1-0.1,0.1c-1.1,0.9-2.7,0.9-3.9,0c-0.4-0.5-0.7-1.2-0.6-1.8
	c0.1-0.7,0.4-1.5,0.8-2.1C66.6,30.7,67.2,30.4,67.9,30.5L67.9,30.5z M40.8,51.3c0.2,0,0.9,0.7,1.3,0.9c0.2,0.2,0.7,0.5,0.9,0.7
	l-3.2,1.8l-1.8-2.9c0.7,0,1.1-0.3,1.6-0.3C40,51.4,40.4,51.3,40.8,51.3L40.8,51.3z M60.9,51.3c0.5,0.2,1.1,0.4,1.6,0.7
	c0.2,0.2,0.7,0.2,1.1,0.4l-2.5,2.5l-2.7-2.7c0.4-0.2,0.9-0.4,1.3-0.4C60.1,51.5,60.5,51.3,60.9,51.3L60.9,51.3z M32.5,63.4
	c-1.7,0.1-3.4,0.8-4.5,2.1c-0.4,0.5-0.6,1.1-0.8,1.8c-2.5-1.3-5.4-1.8-8.2-1.5H19c-1.9,0.4-3.5,1.5-4.4,3.2c-0.2,0.4,0,1-0.1,1.4
	c-2.1-1-4.4-1.6-6.7-1.7c-2.3,0-4.5,1-5.9,2.8c-1.5,2-1.9,4.6-0.9,6.9C2.1,80.9,4,83,6.3,84.5l0.1,0.1c1,0.7,3.2,2.2,6.4,4.4
	s7.3,4.9,11.4,7.6c8.2,5.4,16.4,10.8,18.6,12.2h0.1c2.5,1.8,5.2,3.2,8.1,4.2c4.4,1,9.1,0.4,13-1.8h0.1c3.3-1.6,16.1-8.4,20.4-10.7
	c1.2-0.8,2.5-1.2,3.9-1.3c1.2,0.2,2.3,0.7,3.2,1.5l6.2,4c0.9,0.8,2.4,0.7,3.2-0.2c0.8-0.9,0.7-2.4-0.2-3.2c-0.2-0.1-0.3-0.3-0.5-0.3
	L94,96.6c-1.6-1.2-3.6-2-5.6-2.2c-2.2,0-4.4,0.7-6.2,1.8c-4.3,2.3-17.2,9-20.3,10.6c-3,1.8-6.5,2.3-9.9,1.6c-2.5-1-4.8-2.2-7-3.7
	v0.1c-1.9-1.2-10.3-6.6-18.5-12c-4.1-2.7-8.1-5.4-11.3-7.6C12,83,9.6,81.3,9,80.9L9,80.9c-1.6-1-3-2.4-3.9-4.1
	C4.6,76,4.8,75,5.4,74.4C6,73.6,7,73.2,7.9,73.3c2.2,0.1,4.3,0.8,6.2,1.9c0.2,0.2,0.4,0.4,0.6,0.6l20.7,13.8
	c0.2,0.1,0.4,0.3,0.6,0.4c0.4,0.5,0.9,0.9,1.5,1.3c2.4,1.3,5.1,1.8,7.8,1.7h13.2c5-0.2,9.9-1,14.6-2.3c1.2-0.4,1.9-1.6,1.6-2.8
	c-0.4-1.2-1.6-1.9-2.8-1.6l0,0c-4.4,1.2-8.8,2-13.4,2.2H45.3c-1.9,0.1-3.8-0.3-5.5-1.1c-0.9-0.4-1.4-1.4-1.3-2.3
	c-0.1-1,0.4-1.9,1.3-2.3c1.7-0.9,3.6-1.2,5.5-1.1c3.7-0.1,7.3-0.7,10.8-1.6c0,0,0.1,0,0.1,0c0.6,0.1,1.2-0.1,1.6-0.4
	c2.5-0.6,5-1.6,7.3-2.8c0,0,0.1,0,0.1-0.1C70.4,73.5,70,68,82.8,68c3.8-0.1,7.6,0.8,11,2.5c5.6,2.2,16.3,7.4,16.3,7.4
	c1.1,0.5,2.5,0.1,3-1.1c0.5-1.1,0.1-2.5-1.1-3c0,0-10.6-5.1-16.7-7.5c-3.9-1.9-8.2-2.9-12.6-2.9c-14.2,0-17.7,7.9-19.9,9.3
	c0,0-0.1,0.1-0.1,0.1c-2,0.9-4,1.6-6.2,2.2c-1.4-0.9-11.5-7.4-15.1-9.5C38.8,64,35.7,63.3,32.5,63.4L32.5,63.4z M32.9,68
	c2.3,0,4.5,0.6,6.5,1.6v-0.1c2.2,1.2,7.3,4.5,11.2,7c-1.8,0.3-3.5,0.5-5.3,0.6c-1.1,0-2.1,0.1-3.2,0.2L31.4,70
	c-0.2-1.1-0.1-1.4,0.1-1.6C31.9,68.1,32.4,67.9,32.9,68L32.9,68z M19.9,70.2L19.9,70.2c2.4-0.1,4.7,0.5,6.7,1.6
	c0.2,0.4,0.5,0.8,0.8,1l9.5,6.4c-1.4,1-2.3,2.4-2.8,4L18.7,72.9c-0.2-0.7-0.2-1.3,0-2C18.8,70.7,19,70.4,19.9,70.2L19.9,70.2z"/>
</svg>
