<?xml version="1.0" encoding="utf-8"?>
<!-- Generator: Adobe Illustrator 25.1.0, SVG Export Plug-In . SVG Version: 6.00 Build 0)  -->
<svg version="1.1" id="圖層_1" xmlns="http://www.w3.org/2000/svg" xmlns:xlink="http://www.w3.org/1999/xlink" x="0px" y="0px"
	 viewBox="0 0 113.4 113.4" style="enable-background:new 0 0 113.4 113.4;" xml:space="preserve">
<style type="text/css">
	.st0{fill:#38470B;}
</style>
<path id="icons8-pets" class="st0" d="M19.3,3.6c-5.2,0-9.5,4.1-13,8.6c-1.7,2.1-3.2,4.4-4.4,6.8c-1.1,1.9-1.7,4.1-1.9,6.3
	c0.2,3.5,2,6.8,5,8.8c2,1.5,4.4,2.6,6.9,3.1c-3,3.9-4.7,8.6-4.7,13.5c0,12.6,10.3,22.9,22.9,22.9h14.2c-0.2,0.6-0.5,1.2-0.7,1.9
	c-1.8,5.6-2.7,11.5-2.6,17.4c0,0.4,0.1,0.9,0.3,1.2c2.1,3.2,4.9,5.9,8.1,8c8.3,5.3,17.9,8,27.7,7.7c9.8,0.3,19.5-2.3,27.7-7.7
	c3.2-2.1,6-4.8,8.1-8c0.2-0.4,0.3-0.8,0.3-1.2c0.1-5.9-0.8-11.8-2.6-17.4c-0.4-1.4-1.1-2.8-1.9-4c0.3-0.3,0.5-0.6,0.6-0.9
	c1-2,1.5-4.3,1.5-6.5c-0.1-5.8-1.9-11.3-5.4-16c-0.8-1-2.4-1.2-3.4-0.4c0,0,0,0,0,0l-11.1,8.9c-4.5-1.6-9.2-2.3-14-2.1
	c-2.6,0-5.1,0.2-7.7,0.6c0.3-1.4,0.4-2.8,0.4-4.2c0-4.9-1.7-9.6-4.7-13.5c2.5-0.5,4.9-1.5,6.9-3.1c3-2,4.8-5.2,5-8.8
	c-0.1-2.2-0.8-4.4-1.9-6.3c-1.2-2.4-2.7-4.7-4.4-6.8c-3.5-4.4-7.9-8.6-13-8.6c-2.7,0-5.2,1.1-7,3c-7.7-4.1-16.9-4.1-24.6,0
	C24.5,4.7,22,3.6,19.3,3.6z M19.3,8.4c1,0,2,0.3,2.8,1c-6.3,5-10.1,12.7-10.1,20.8c0,0.7,0.1,1.4,0.1,2.1c-1.6-0.4-3-1.1-4.3-2
	c-1.7-1.1-2.9-2.9-3.1-4.9c0.2-1.5,0.7-2.9,1.4-4.2c1.1-2.1,2.4-4.1,3.8-6C13.1,11.3,17.2,8.4,19.3,8.4z M38.6,8.4
	c12,0,21.7,9.6,21.7,21.6c0,2-0.3,3.9-0.8,5.9c-0.2,0.8,0,1.7,0.6,2.3c6.9,7.2,6.7,18.6-0.5,25.6c-3.4,3.2-7.9,5-12.5,5h-6V58.7
	c1.8-0.8,3.4-2,4.6-3.6c0.7-0.9,1.3-1.8,1.8-2.9c0.5-0.8,0.8-1.8,0.8-2.8c0-1.1-0.6-2.2-1.5-2.8c-0.7-0.5-1.4-0.9-2.3-1.2
	c-1.9-0.6-3.9-0.9-5.9-0.8c-2,0-4,0.2-5.9,0.8c-0.8,0.3-1.6,0.6-2.3,1.2c-0.9,0.7-1.5,1.7-1.5,2.8c0,1,0.3,1.9,0.8,2.8
	c0.5,1,1.1,2,1.8,2.9c1.2,1.6,2.8,2.8,4.6,3.6v10.1h-6.1c-10,0-18.1-8.1-18.1-18.1c0-4.7,1.8-9.2,5-12.5c0.6-0.6,0.8-1.5,0.6-2.3
	c-3.2-11.5,3.5-23.4,15.1-26.6C34.6,8.7,36.6,8.4,38.6,8.4L38.6,8.4z M57.9,8.4c2.1,0,6.2,2.8,9.3,6.7c1.5,1.8,2.8,3.8,3.8,6
	c0.7,1.3,1.2,2.7,1.4,4.2c-0.2,2-1.3,3.8-3.1,4.9c-1.3,0.9-2.8,1.6-4.3,2c0.1-0.7,0.1-1.4,0.1-2.1c0-8.1-3.7-15.7-10.1-20.8
	C55.9,8.8,56.9,8.4,57.9,8.4L57.9,8.4z M30.2,32.5c-2,0-3.6,1.6-3.6,3.6s1.6,3.6,3.6,3.6s3.6-1.6,3.6-3.6v0
	C33.8,34.2,32.2,32.5,30.2,32.5C30.2,32.6,30.2,32.6,30.2,32.5L30.2,32.5z M47,32.5c-2,0-3.6,1.6-3.6,3.6c0,2,1.6,3.6,3.6,3.6
	c2,0,3.6-1.6,3.6-3.6C50.7,34.2,49,32.6,47,32.5L47,32.5z M38.6,49.4c1.5,0,2.9,0.2,4.4,0.6c0.1,0,0.1,0,0.1,0.1
	c-0.4,0.7-0.8,1.4-1.3,2c-0.8,1.1-1.9,1.9-3.2,2.2c-1.3-0.3-2.5-1.1-3.2-2.2c-0.5-0.6-0.9-1.3-1.3-2c0.1,0,0.1,0,0.1-0.1
	C35.7,49.6,37.1,49.4,38.6,49.4z M103.1,53c2.1,3.2,3.1,7,3.1,10.9c0,1.5-0.3,3-1,4.3c-0.2,0.4-0.4,0.8-0.8,1.2
	c-0.9,0.9-0.9,2.2-0.2,3.2c0.9,1.3,1.6,2.8,2,4.4c1.5,4.9,2.3,10,2.3,15.2c-1.7,2.4-3.8,4.4-6.3,6c-7.4,4.8-16.2,7.2-25,6.8
	c-8.8,0.4-17.6-2-25-6.8c-2.5-1.5-4.6-3.6-6.3-6c0-5.1,0.7-10.3,2.3-15.2c0.4-1.2,0.9-2.4,1.5-3.6c8-0.9,14.9-6,18.2-13.3
	c3.1-0.7,6.2-1,9.3-1c4.6-0.2,9.2,0.6,13.5,2.2c0.8,0.4,1.8,0.2,2.5-0.3L103.1,53z M68.8,76c-2,0-3.6,1.6-3.6,3.6
	c0,2,1.6,3.6,3.6,3.6c2,0,3.6-1.6,3.6-3.6S70.8,76,68.8,76C68.8,76,68.8,76,68.8,76z M85.6,76c-2,0-3.6,1.6-3.6,3.6s1.6,3.6,3.6,3.6
	c2,0,3.6-1.6,3.6-3.6C89.3,77.6,87.6,76,85.6,76L85.6,76z M77.2,85.6c-4,0-7.2,1.1-7.2,2.4c0.8,2.1,2.2,3.9,3.9,5.3
	c-1,1.2-2.4,1.9-3.9,1.9v4.8c2.8,0,5.4-1.2,7.2-3.2c1.8,2.1,4.5,3.2,7.2,3.3v-4.8c-1.5-0.1-2.9-0.8-3.9-1.9c1.7-1.4,3.1-3.2,3.9-5.3
	C84.4,86.7,81.2,85.6,77.2,85.6L77.2,85.6z"/>
</svg>
