<?xml version="1.0" encoding="utf-8"?>
<!-- Generator: Adobe Illustrator 25.1.0, SVG Export Plug-In . SVG Version: 6.00 Build 0)  -->
<svg version="1.1" id="圖層_1" xmlns="http://www.w3.org/2000/svg" xmlns:xlink="http://www.w3.org/1999/xlink" x="0px" y="0px"
	 viewBox="0 0 113.4 113.4" style="enable-background:new 0 0 113.4 113.4;" xml:space="preserve">
<style type="text/css">
	.st0{fill:#38470B;}
</style>
<g id="surface1" transform="translate(-6.956)">
	<path id="路径_455" class="st0" d="M29.6,0c-3.8,0-6.8,3.1-6.8,6.8v35.6c-0.1,0.4-0.1,0.9,0,1.3v56c0,3.8,3.1,6.8,6.8,6.8v2.3
		c0,2.5,2,4.5,4.5,4.5H41c2.5,0,4.5-2,4.5-4.5v-2.3h36.3v2.3c0,2.5,2,4.5,4.5,4.5h6.8c2.5,0,4.5-2,4.5-4.5v-2.3
		c3.8,0,6.8-3.1,6.8-6.8V43.5c0.1-0.3,0.1-0.6,0-0.9V6.8c0-3.8-3.1-6.8-6.8-6.8H29.6z M29.6,4.5h68c1.2,0,2.3,1,2.3,2.2
		c0,0,0,0,0,0.1v34H27.4v-34C27.4,5.6,28.3,4.6,29.6,4.5C29.6,4.5,29.6,4.5,29.6,4.5z M38.5,13.5c-0.1,0-0.2,0-0.3,0.1
		c-1.1,0.2-1.8,1.2-1.8,2.3v15.9c0,1.3,1,2.3,2.3,2.3c1.3,0,2.3-1,2.3-2.3c0,0,0,0,0,0V15.9c0-1.3-0.9-2.3-2.2-2.3
		C38.7,13.5,38.6,13.5,38.5,13.5L38.5,13.5z M27.4,45.4h72.6v54.4c0,1.2-1,2.3-2.2,2.3c0,0,0,0-0.1,0h-68c-1.2,0-2.3-1-2.3-2.2
		c0,0,0,0,0-0.1V45.4z M38.5,52.1c-0.1,0-0.2,0-0.3,0.1c-1.1,0.2-1.8,1.2-1.8,2.3v15.9c0,1.3,1,2.3,2.3,2.3c1.3,0,2.3-1,2.3-2.3
		c0,0,0,0,0,0V54.4c0-1.3-0.9-2.3-2.2-2.3C38.7,52.1,38.6,52.1,38.5,52.1L38.5,52.1z M34.2,106.6H41v2.3h-6.8V106.6z M86.3,106.6
		h6.8v2.3h-6.8V106.6z"/>
</g>
</svg>
