<?xml version="1.0" encoding="utf-8"?>
<!-- Generator: Adobe Illustrator 25.1.0, SVG Export Plug-In . SVG Version: 6.00 Build 0)  -->
<svg version="1.1" id="圖層_1" xmlns="http://www.w3.org/2000/svg" xmlns:xlink="http://www.w3.org/1999/xlink" x="0px" y="0px"
	 viewBox="0 0 113.4 113.4" style="enable-background:new 0 0 113.4 113.4;" xml:space="preserve">
<style type="text/css">
	.st0{fill:#FFFFFF;}
</style>
<g id="surface1" transform="translate(-6 -2)">
	<path id="路径_460" class="st0" d="M8.5,2v113.4h93.7V68.2L113,57.4c0.2-0.2,0.4-0.5,0.5-0.8l0.5-0.5c3.9-3.9,4-10.3,0-14.3
		c-3.1-3.1-7.9-3.9-11.9-1.8V2H8.5z M13.4,6.9h83.8v38L80.9,61.2H43v4.9h33l-9.9,9.9H43v4.9h18.2l-1,1c-0.5,0.2-0.7,0.5-0.7,1
		l-4.2,14.8c-0.5,1.2,0.1,2.6,1.4,3c0.3,0.1,0.6,0.2,0.9,0.2h0.7L73,96.9c0.3-0.3,0.7-0.5,1-0.7l23.2-23v37.3H13.4V6.9z M25.7,31.6
		v4.9h9.9v-4.9L25.7,31.6z M43,31.6v4.9h41.9v-4.9L43,31.6z M25.7,46.4v4.9h9.9v-4.9H25.7z M43,46.4v4.9h41.9v-4.9H43z M101.6,47.3
		l7.3,7.3L71.1,92.2l0,0l-7.2-7l0.1-0.4L101.6,47.3z M25.7,61.2v4.9h9.9v-4.9H25.7z M25.7,75.9v4.9h9.9v-4.9L25.7,75.9z"/>
</g>
</svg>
