<?xml version="1.0" encoding="utf-8"?>
<!-- Generator: Adobe Illustrator 25.1.0, SVG Export Plug-In . SVG Version: 6.00 Build 0)  -->
<svg version="1.1" id="圖層_1" xmlns="http://www.w3.org/2000/svg" xmlns:xlink="http://www.w3.org/1999/xlink" x="0px" y="0px"
	 viewBox="0 0 113.4 113.4" style="enable-background:new 0 0 113.4 113.4;" xml:space="preserve">
<style type="text/css">
	.st0{fill:#FCFFFF;}
</style>
<g id="组_67" transform="translate(-629 -209)">
	<g id="surface1" transform="translate(623 209)">
		<path id="路径_465" class="st0" d="M62.7,0c-4.3,0-8,3-9,7.1H24.9c-3.9,0-7.1,3.2-7.1,7.1v92.1c0,3.9,3.2,7.1,7.1,7.1h75.6
			c3.9,0,7.1-3.2,7.1-7.1V14.2c0-3.9-3.2-7.1-7.1-7.1H71.7C70.7,3,67,0,62.7,0z M62.7,4.7c2.6,0,4.7,2.1,4.7,4.7c0,0,0,0,0,0.1
			c0,1.3,1.1,2.4,2.4,2.4h7.1v4.7H48.5v-4.7h7.1c1.3,0,2.4-1.1,2.4-2.4C57.9,6.9,60,4.7,62.7,4.7C62.6,4.7,62.7,4.7,62.7,4.7z
			 M24.9,11.8h18.9v7.1c0,1.3,1.1,2.4,2.4,2.4h33.1c1.3,0,2.4-1.1,2.4-2.4v-7.1h18.9c1.3,0,2.3,1,2.4,2.3c0,0,0,0.1,0,0.1v92.1
			c0,1.3-1,2.3-2.3,2.4c0,0-0.1,0-0.1,0H24.9c-1.3,0-2.3-1-2.4-2.3c0,0,0-0.1,0-0.1V14.2C22.5,12.9,23.5,11.8,24.9,11.8
			C24.8,11.8,24.9,11.8,24.9,11.8z"/>
	</g>
	<g id="surface1-2" transform="translate(659.125 263.377)">
		<path id="路径_466" class="st0" d="M42.9-8.9c-0.6,0-1.2,0.4-1.6,0.9L22.9,20.1L11,9.8C10.3,9,9,9,8.3,9.8c-0.8,0.8-0.8,2,0,2.8
			c0.1,0.1,0.2,0.1,0.2,0.2l13.6,11.8c0.8,0.7,2,0.6,2.7-0.2c0.1-0.1,0.1-0.1,0.2-0.2l19.6-30C45.2-6.8,45-8,44.1-8.6
			C43.7-8.8,43.3-8.9,42.9-8.9z"/>
	</g>
</g>
</svg>
