<?xml version="1.0" encoding="utf-8"?>
<!-- Generator: Adobe Illustrator 25.1.0, SVG Export Plug-In . SVG Version: 6.00 Build 0)  -->
<svg version="1.1" id="圖層_1" xmlns="http://www.w3.org/2000/svg" xmlns:xlink="http://www.w3.org/1999/xlink" x="0px" y="0px"
	 viewBox="0 0 113.4 113.4" style="enable-background:new 0 0 113.4 113.4;" xml:space="preserve">
<style type="text/css">
	.st0{fill:#38470B;}
</style>
<g id="surface1" transform="translate(0.081 -2)">
	<path id="路径_452" class="st0" d="M22.8,6.6c-10,0-18.1,8.1-18.1,18.1s8.1,18.1,18.1,18.1s18.1-8.1,18.1-18.1c0,0,0,0,0,0
		C40.9,14.8,32.8,6.7,22.8,6.6z M22.8,11.2c7.5,0,13.6,6.1,13.6,13.6s-6.1,13.6-13.6,13.6S9.2,32.3,9.2,24.8c0,0,0,0,0,0
		C9.2,17.3,15.2,11.2,22.8,11.2C22.7,11.2,22.8,11.2,22.8,11.2z M81.2,18c-1.1,0.2-1.9,1.2-1.8,2.3v15.8h-2.5
		c-1.3,0.1-2.2,1.1-2.2,2.4c0.1,1.3,1.1,2.2,2.4,2.2h31.7c1.3,0,2.3-1,2.3-2.3s-1-2.3-2.3-2.3h-2.3v-6.8c0-1.3-1-2.3-2.3-2.3h-4.5
		v-6.8c0-1.3-1-2.3-2.3-2.3L81.2,18L81.2,18z M83.9,22.5h11.3v6.1c-0.1,0.4-0.1,0.9,0,1.3v6.2H83.9V22.5z M99.7,31.6h2.3v4.5h-2.3
		V31.6z M69.9,42.8c-1.3,0.1-2.2,1.2-2.1,2.5c0.1,1.3,1.2,2.2,2.5,2.1h33.9c1.3,0,2.3-1,2.3-2.3c0-1.3-1-2.3-2.3-2.3
		C104.2,42.8,69.9,42.8,69.9,42.8z M11.5,47.4c-3.2,0.1-6.3,0.4-9.4,0.9c-1.2,0.1-2.2,1.1-2.1,2.4s1.1,2.2,2.4,2.1
		c0.2,0,0.3,0,0.5-0.1C5,52.4,8,52.2,9.8,52l10.8,45.6c0.3,1.2,1.6,1.9,2.8,1.6c0.8-0.2,1.4-0.8,1.6-1.6L35.9,52
		c1.2,0,2.6,0.1,4.7,0.3c1.4,0.1,2.8,0.3,4.2,0.6c0.6,0.2,1.2,0.4,1.7,0.6c0,0,0.1,0,0.1,0l14,20.7c0.4,0.5,1,0.9,1.6,0.9
		c0.6,0.1,1.3-0.1,1.8-0.6L78,61h16.8c-0.5,0.2-0.9,0.4-1.5,0.6c-2,0.6-4.2,1.2-6.1,1.8c-1.8,0.4-3.5,1.2-4.9,2.4
		c0,0-0.1,0.1-0.1,0.1c0,0-3.9,4.5-8,9.3c-2,2.4-4,4.7-5.7,6.6s-2.7,3.1-3.3,3.9h0.1c-0.6,0.8-1.2,1.6-2,2.2c-0.3,0.2-0.4,0.3-1,0.3
		c-0.4,0-0.8-0.2-1.1-0.5c-0.7-0.7-1.4-1.4-2-2.1l-10-11.3c-0.6-0.7-1.6-1-2.5-0.6c-0.9,0.3-1.5,1.2-1.5,2.1v30.5h-43
		c-1.3,0-2.3,1-2.3,2.3c0,1.3,1,2.3,2.3,2.3c0,0,0,0,0,0h45.3c1.3,0,2.3-1,2.3-2.3V81.7l6,6.8c0.8,0.9,1.6,1.8,2.5,2.6
		c1.1,1,2.5,1.5,3.9,1.6c1.3,0,2.5-0.4,3.6-1.1c1.1-0.9,2.1-2,3-3.2c0-0.1,1.4-1.7,3-3.6s3.7-4.4,5.7-6.7c4-4.7,7.8-9.1,7.9-9.1
		l0.1-0.1c1-0.5,1.9-0.9,3-1.2c1.7-0.5,3.9-1.1,6.1-1.8c2.1-0.5,4.1-1.3,6-2.3c0.9-0.5,1.7-1.1,2.3-1.8c0.2-0.2,0.4-0.5,0.6-0.8h0.7
		c5,0,9-4,9.1-9c0,0,0,0,0,0c0-1.3-1-2.3-2.3-2.3H65.6c-1.2,0.1-2.1,1.1-2.1,2.3c0,4.6,3.5,8.5,8.1,8.9l-8.9,8.7L50,50.6
		c-0.1-0.1-0.2-0.2-0.3-0.4c-1.1-1-2.5-1.6-4-1.8c-1.5-0.4-3.1-0.6-4.7-0.8c-3.2-0.3-6.2-0.4-7-0.4c-1.1,0-2,0.7-2.2,1.8l-9.1,38.3
		l-9.1-38.3C13.4,48.1,12.5,47.4,11.5,47.4L11.5,47.4z M69,54.2h38.9c-0.7,1.4-2.1,2.3-3.6,2.3H72.6C71,56.4,69.6,55.5,69,54.2
		L69,54.2z"/>
</g>
</svg>
