<?xml version="1.0" encoding="utf-8"?>
<!-- Generator: Adobe Illustrator 25.1.0, SVG Export Plug-In . SVG Version: 6.00 Build 0)  -->
<svg version="1.1" id="圖層_1" xmlns="http://www.w3.org/2000/svg" xmlns:xlink="http://www.w3.org/1999/xlink" x="0px" y="0px"
	 viewBox="0 0 113.4 113.4" style="enable-background:new 0 0 113.4 113.4;" xml:space="preserve">
<style type="text/css">
	.st0{fill:#38470B;}
</style>
<g id="surface1" transform="translate(-0.031 -12)">
	<path id="路径_456" class="st0" d="M31.6,25.5c-12.4,0-22.5,10-22.5,22.4v5.2c-5.3,1.4-9,6.1-9.1,11.6c0.1,4.9,3.1,9.2,7.7,10.9
		l5.5,14.4l0.1,0.2h0.1c0.5,1.6,1.4,3,2.6,4.1l-4,8c-1.6,3.2-0.3,7,2.8,8.7c3.2,1.6,7.1,0.4,8.7-2.8c0,0,0,0,0,0l5-10.1h56.3l5,10.1
		c1.7,3.2,5.6,4.4,8.7,2.7c3.1-1.6,4.3-5.4,2.8-8.6l-4-8c1.2-1.1,2.1-2.5,2.6-4.1h0.1l0.1-0.2l5.5-14.4c4.6-1.7,7.6-6.1,7.7-10.9
		c0-5.5-3.8-10.3-9.1-11.6V48c0-12.4-10.1-22.4-22.5-22.4H31.6z M31.6,30.1h50.2c9.9,0,17.9,7.9,18,17.8c0,0,0,0,0,0.1v5
		c-4.3,0.6-7.9,3.5-9.4,7.5h-0.1l-3.7,8.4c-0.3-0.1-0.5-0.2-0.9-0.3c-1.7-0.5-4.1-1.2-7-1.8c-7.1-1.7-14.4-2.5-21.7-2.6
		c-7.4,0.1-14.8,1-22,2.6c-3,0.7-5.5,1.3-7.2,1.8c-0.4,0.1-0.6,0.2-0.9,0.3l-3.5-7.8h-0.1c-1.4-4.3-5.1-7.5-9.6-8.2v-5
		C13.7,38.1,21.7,30.1,31.6,30.1C31.6,30.1,31.6,30.1,31.6,30.1z M12,57.3c3.3,0,6.2,2.2,7.1,5.3v0.1l0.1,0.1l4.4,9.7l1.1,2.3
		l1.9-1.2l0.2-0.1c0,0,0,0,0.1,0s0.2,0,0.3-0.1c0.5-0.2,1.1-0.4,1.9-0.6c1.7-0.5,4.1-1.1,7-1.8c6.9-1.6,13.9-2.4,21-2.5
		c7,0.1,13.9,0.9,20.7,2.5c2.8,0.6,5.1,1.3,6.7,1.8c0.8,0.2,1.5,0.4,1.9,0.6c0.1,0.1,0.3,0.1,0.4,0.2h0.1l2,1.2l1.1-2.3l4.6-10.3
		v-0.1l0.1-0.1c1.1-2.9,3.8-4.8,6.9-4.8c4.1,0,7.4,3.3,7.5,7.4c0,3.4-2.2,6.3-5.5,7.2l-1.1,0.3l-0.4,1.1l-6,15.5v0.1l-0.1,0.1
		C95.1,91,93.2,92.6,91,93c-1.2,0.4-2.5,0.6-3.8,0.6c-0.6-0.3-1.3-0.3-1.8,0H28.1c-0.5-0.2-1.2-0.2-1.7,0c-1.3,0-2.6-0.2-3.9-0.6
		c-2.2-0.5-4.1-2-4.8-4.2l-0.1-0.1v-0.1l-6-15.4l-0.4-1.1L10,71.9c-3.2-0.9-5.4-3.8-5.5-7.1C4.6,60.7,7.9,57.3,12,57.3
		C12,57.3,12,57.3,12,57.3z M19.9,96.9c0.4,0.2,0.8,0.4,1.2,0.5c0.8,0.3,1.7,0.4,2.6,0.6l-4.2,8.3c-0.3,0.7-1,1.1-1.7,1.1
		c-0.3,0-0.6-0.1-0.9-0.2c-0.9-0.4-1.3-1.5-0.9-2.5c0,0,0-0.1,0-0.1L19.9,96.9z M93.6,96.9l3.8,7.7c0.5,0.9,0.1,2-0.8,2.5
		c0,0-0.1,0-0.1,0c-0.3,0.1-0.6,0.2-0.9,0.2c-0.7,0-1.4-0.4-1.7-1.1l-4.2-8.3c0.9-0.1,1.7-0.3,2.6-0.6C92.7,97.2,93.2,97,93.6,96.9z
		"/>
</g>
</svg>
