<?xml version="1.0" encoding="utf-8"?>
<!-- Generator: Adobe Illustrator 25.1.0, SVG Export Plug-In . SVG Version: 6.00 Build 0)  -->
<svg version="1.1" id="圖層_1" xmlns="http://www.w3.org/2000/svg" xmlns:xlink="http://www.w3.org/1999/xlink" x="0px" y="0px"
	 viewBox="0 0 113.4 113.4" style="enable-background:new 0 0 113.4 113.4;" xml:space="preserve">
<style type="text/css">
	.st0{fill:#38470B;}
</style>
<g id="surface1_1_" transform="translate(-0.059 -7)">
	<path id="路径_449" class="st0" d="M56.7,22.3c-20.5,0-40.3,8-55,22.2l-1.6,1.6l12.6,13.1l1.7-1.6c23.7-22.8,61.2-22.8,84.9,0
		l1.6,1.6l12.6-13.1l-1.6-1.6C97,30.2,77.3,22.3,56.7,22.3z M56.7,26.8c18.6,0,36.4,7,50.1,19.5l-6.3,6.6
		c-24.8-22.6-62.8-22.6-87.6,0l-6.3-6.5C20.3,33.8,38.2,26.9,56.7,26.8z M56.7,49.6c-13.5,0-26.5,5.2-36.2,14.6l-1.6,1.6l12.6,13.2
		l1.6-1.6c13.1-12.8,34-12.8,47.1,0l1.6,1.6l12.6-13.2l-1.6-1.6C83.2,54.8,70.2,49.6,56.7,49.6L56.7,49.6z M56.7,54.1
		c11.5,0,22.6,4.3,31.2,11.9l-6.3,6.6C67.4,60,46.1,60,31.8,72.6L25.5,66C34.1,58.4,45.2,54.1,56.7,54.1L56.7,54.1z M56.7,76.8
		c-6.5,0-12.6,2.5-17.3,7l-1.6,1.6l18.9,19.7l1.6-1.7l17.3-18L74,83.8C69.4,79.3,63.2,76.8,56.7,76.8L56.7,76.8z M56.7,81.4
		c4.5,0.1,8.8,1.6,12.2,4.4L56.7,98.5L44.5,85.8C48,83,52.3,81.5,56.7,81.4L56.7,81.4z"/>
</g>
</svg>
