<svg version="1.1" id="圖層_1" xmlns="http://www.w3.org/2000/svg" x="0" y="0" viewBox="0 0 161.4 279.7" xml:space="preserve"><style>.st0{fill:#fff}</style><g id="组_40" transform="translate(-137 -120.554)"><path id="路径_353" class="st0" d="M217.7 133.4c34.6 0 64.2 24.9 70.1 59h.7c-6.7-39.1-43.8-65.3-82.9-58.6-30 5.1-53.4 28.6-58.6 58.6h.7c5.8-34.1 35.4-59 70-59z"/><path id="路径_354" class="st0" d="M217.7 387.3c-34.6 0-64.2-24.9-70.1-59h-.6c6.7 39.1 43.8 65.3 82.9 58.6 30-5.1 53.4-28.6 58.6-58.6h-.7c-5.9 34.2-35.5 59-70.1 59z"/><path id="路径_355" class="st0" d="M217.7 133.4c34.6 0 64.2 24.9 70.1 59h.7c-6.7-39.1-43.8-65.3-82.9-58.6-30 5.1-53.4 28.6-58.6 58.6h.7c5.8-34.1 35.4-59 70-59z"/><path id="路径_356" class="st0" d="M254.5 291.3c-.5 0-.9-.4-.9-.9 0-5.3-4.3-9.6-9.6-9.6h-53c-5.3 0-9.6 4.3-9.6 9.6 0 .5-.4.9-.9.9s-.9-.4-.9-.9c0-6.3 5.1-11.4 11.4-11.4h53c6.3 0 11.4 5.1 11.4 11.4 0 .5-.4.9-.9.9z"/><path id="路径_357" class="st0" d="M244 336.3h-53c-4.5 0-8.6-2.6-10.4-6.7-.2-.5 0-1 .5-1.2.5-.2 1 0 1.2.5 1.5 3.4 5 5.6 8.7 5.6h53c3.8 0 7.3-2.3 8.8-5.8.2-.5.8-.6 1.2-.4.4.2.6.7.5 1.1-1.8 4.1-5.9 6.9-10.5 6.9z"/><path id="路径_358" class="st0" d="M229.8 309.3H208c-5.1 0-9.2-4.1-9.2-9.2v-6.4c0-.5.4-.9.9-.9h8.1c.5 0 .9.4.9.9s-.4.9-.9.9h-7.2v5.5c0 4.1 3.3 7.4 7.4 7.4h21.7c4.1 0 7.4-3.3 7.4-7.4 0-.5.4-.9.9-.9s.9.4.9.9c.1 5-4.1 9.2-9.1 9.2z"/><path id="路径_359" class="st0" d="M218.9 336.3c-.5 0-.9-.4-.9-.9v-27c0-.5.4-.9.9-1s.9.4 1 .9v27.1c-.1.4-.5.9-1 .9z"/><path id="路径_360" class="st0" d="M238.1 322.9h-38.3c-.5 0-.9-.4-.9-1 0-.5.4-.9.9-.9h38.3c.5 0 .9.4.9 1-.1.5-.5.9-.9.9z"/><path id="路径_361" class="st0" d="M209.1 254.1c-12.5 0-22.7-10.2-22.7-22.7V186c0-.5.4-.9 1-.9.5 0 .9.4.9.9v45.4c0 11.5 9.3 20.8 20.9 20.9.5 0 .9.4.9 1-.1.4-.5.8-1 .8z"/><path id="路径_362" class="st0" d="M232.6 201.9c1.7 0 3.1 1.4 3.1 3.1s-1.4 3.1-3.1 3.1c-1.7 0-3.1-1.4-3.1-3.1.1-1.8 1.4-3.1 3.1-3.1m0-1.9c-2.7 0-4.9 2.2-4.9 4.9s2.2 4.9 4.9 4.9 4.9-2.2 4.9-4.9-2.2-4.9-4.9-4.9z"/><path id="路径_363" class="st0" d="M219 270.7h-9.9c-.5 0-.9-.4-.9-.9v-83.7c0-.5.4-.9.9-.9h15.8c12.5 0 22.7 10.2 22.7 22.7v24.3c0 12.5-10.2 22.7-22.7 22.7-.5 0-.9-.4-.9-.9s.4-.9.9-.9c11.5 0 20.8-9.3 20.9-20.9v-24.3c0-11.5-9.3-20.8-20.9-20.9H210v81.8h9c.5 0 .9.4 1 .9s-.4 1-1 1z"/><path id="路径_364" class="st0" d="M257.2 216c-.5 0-.9-.4-.9-.9 0-5.3-4.3-9.6-9.6-9.6-.5 0-.9-.4-.9-.9s.4-.9.9-.9c6.3 0 11.4 5.1 11.4 11.4.1.5-.4.9-.9.9z"/><path id="路径_365" class="st0" d="M200.4 209.8c-13 0-23.5-10.5-23.5-23.5 0-.5.4-.9.9-.9s.9.4.9.9c0 11.9 9.7 21.6 21.6 21.6.5 0 .9.4 1 .9s-.4 1-.9 1z"/><path id="路径_366" class="st0" d="M197.8 156.9l-3.3 1.4 1.4 3.2-1.2.5-3.2-7.4 1.2-.5 1.4 3.2 3.3-1.4-1.4-3.2 1.2-.5 3.2 7.4-1.2.5-1.4-3.2z"/><path id="路径_367" class="st0" d="M204 154.3c-.1-.6-.2-1.2-.3-1.9 0-.3 0-.6.1-.8.2-.5.5-.9.8-1.2.5-.4 1-.7 1.6-.8.6-.1 1.2-.1 1.8.1.5.2.9.4 1.2.8.2.2.4.4.5.7.3 1.2.6 2.4.7 3.7 0 .3 0 .6-.2.8-.2.5-.4.9-.8 1.2-.5.4-1 .7-1.7.8-.6.1-1.2.1-1.8-.1-.5-.1-.9-.4-1.2-.8-.1-.1-.2-.2-.2-.3-.1-.1-.1-.3-.2-.4 0-.6-.2-1.2-.3-1.8zm1.4-.2c.1.5.2 1.1.4 1.6.1.2.3.5.5.6l.6.3c.3.1.6.1.8 0 .3 0 .6-.2.8-.3.2-.1.3-.3.5-.5.1-.2.2-.5.2-.7 0-.5-.1-1.1-.2-1.6s-.2-1.1-.4-1.6c-.1-.2-.3-.4-.5-.6l-.6-.3c-.3-.1-.6-.1-.9 0-.3.1-.5.2-.8.3-.2.1-.4.3-.5.5-.1.2-.2.5-.2.7.1.5.1 1 .3 1.6z"/><path id="路径_368" class="st0" d="M215.6 148.6h1.4l-.1 5.2c0 .5.2.9.5 1.3.4.3.8.5 1.3.5s.9-.1 1.3-.4c.4-.3.6-.8.5-1.2l.1-5.2h1.4l-.1 5.3c0 .8-.4 1.5-1 2-1.3 1-3.2 1-4.5-.1-.6-.5-.9-1.3-.9-2l.1-5.4z"/><path id="路径_369" class="st0" d="M229.3 157c1.1.3 1.8 0 2-.7.1-.6-.2-1-.9-1.3-.3-.1-.7-.3-1.1-.4-.6-.2-1.2-.6-1.5-1.2-.3-.5-.4-1.1-.3-1.6.1-.6.6-1.2 1.2-1.5.7-.3 1.5-.4 2.2-.1 1 .2 1.9.7 2.6 1.5l-1 .8c-.6-.5-1.3-.9-2-1.1-.4-.1-.7-.1-1.1 0-.3.1-.6.4-.6.7-.1.2 0 .5.1.7.2.3.5.5.8.6.2.1.5.2 1 .4.7.2 1.2.6 1.6 1.2.3.5.4 1.1.2 1.6-.4 1.5-1.6 2-3.6 1.6-1.2-.3-2.3-.9-3.1-1.9l1.1-.7c.7.7 1.5 1.2 2.4 1.4z"/><path id="路径_370" class="st0" d="M239.6 153l5.2 2.4-.5 1-4-1.8-1 2.1 3.4 1.6-.5 1-3.4-1.6-1 2.1 4 1.8-.5 1-5.2-2.4 3.5-7.2z"/><path id="路径_371" class="st0" d="M197.7 365.5l-3.3-1.4-1.4 3.2-1.2-.5 3.2-7.4 1.2.5-1.4 3.2 3.3 1.4 1.4-3.2 1.2.5-3.2 7.4-1.2-.5 1.4-3.2z"/><path id="路径_372" class="st0" d="M204.3 367.2c.1-.6.2-1.2.4-1.8.1-.3.2-.5.4-.7.3-.4.7-.6 1.2-.8.6-.2 1.2-.2 1.8-.1.6.1 1.2.4 1.7.8.4.3.6.7.8 1.2.1.3.2.5.2.8-.1 1.2-.4 2.5-.7 3.7-.1.3-.2.5-.5.7-.3.4-.7.6-1.2.8-.6.2-1.2.2-1.8.1-.6-.1-1.2-.4-1.6-.8-.4-.3-.7-.7-.8-1.2 0-.1-.1-.3-.1-.4v-.4c0-.7.1-1.3.2-1.9zm1.4.2c-.1.5-.2 1.1-.2 1.6 0 .3.1.5.2.7.1.2.3.4.5.5.2.2.5.3.8.3.3.1.6.1.9 0l.6-.3c.2-.1.4-.4.5-.6.2-.5.3-1 .4-1.6.1-.5.2-1.1.2-1.6 0-.3-.1-.5-.2-.7-.1-.2-.3-.4-.5-.5-.2-.2-.5-.3-.8-.3-.3-.1-.6 0-.8 0l-.6.3c-.2.1-.4.4-.5.6-.3.5-.5 1.1-.5 1.6z"/><path id="路径_373" class="st0" d="M217.2 365.8h-2.5v-1.1l6.3-.1v1.1h-2.5l.1 7h-1.4v-6.9z"/><path id="路径_374" class="st0" d="M225 364.2l5.6-1.1.2 1.1-4.3.9.5 2.3 3.7-.7.2 1.1-3.6.7.5 2.3 4.3-.9.2 1.1-5.6 1.1-1.7-7.9z"/><path id="路径_375" class="st0" d="M234.6 361.7l1.2-.5 2.7 6.4 4-1.7.5 1.1-5.3 2.2-3.1-7.5z"/><g id="组_39"><path id="路径_376" class="st0" d="M159.4 254.6l6.1 6.1-6 6-6.1-6.1 6-6m0-.5l-6.5 6.5 6.6 6.6 6.5-6.5-6.6-6.6z"/><path id="路径_377" class="st0" d="M159.3 254.7l6 6-5.8 5.8-5.9-5.9 5.9-5.9c.1-.1 0-.1 0-.2h-.2l-6 6c-.1.1-.1.1 0 .2l6.1 6.1h.2l6-6v-.2l-6.1-6.1c-.1-.1-.1 0-.2 0v.2zm.1-.6l-.1-.1-6.5 6.5c-.1.1-.1.1 0 .2l6.6 6.6h.2l6.5-6.5v-.2l-6.6-6.6s-.1 0-.1.1l-.1.1 6.5 6.5-6.3 6.3-6.4-6.4 6.4-6.4-.1-.1-.1.1.1-.1z"/><path id="路径_378" class="st0" d="M146.9 254.9l5.8 5.8-5.8 5.8v-11.6m-.3-.8v13l6.5-6.5-6.5-6.5z"/><path id="路径_379" class="st0" d="M146.8 255l5.7 5.7-5.4 5.4v-11.2c0-.1-.1-.1-.1-.1l-.1.1v11.5c0 .1.1.1.1.1h.1l5.8-5.8v-.2l-5.8-5.8c-.1-.1-.1-.1-.2 0-.2.1-.2.2-.1.3zm-.2-.9h-.1v13.1h.1c.1.1.1.1.2 0l6.5-6.5v-.2l-6.5-6.5c-.1-.1-.1-.1-.2 0v.1l-.1.1 6.4 6.4-6.4 6.4.1.1.1-.1v-12.9h-.1l-.1.1.1-.1z"/><path id="路径_380" class="st0" d="M172.3 254.7l6.1 6.1-6 6-6.1-6.1 6-6m0-.5l-6.5 6.5 6.6 6.6 6.5-6.5-6.6-6.6z"/><path id="路径_381" class="st0" d="M172.2 254.8l6 6-5.8 5.8-5.9-5.9 5.9-5.9c.1-.1 0-.1 0-.2h-.2l-6 6c-.1.1-.1.1 0 .2l6.1 6.1h.2l6-6c.1-.1.1-.1 0-.2l-6.1-6.1c-.1-.1-.1 0-.2 0v.2zm.1-.6l-.1-.1-6.5 6.5c-.1.1-.1.1 0 .2l6.6 6.6h.2l6.5-6.5v-.2l-6.6-6.6c-.1-.1-.1-.1-.2 0l.1.1-.1.1 6.5 6.5-6.3 6.3-6.4-6.4 6.4-6.4-.1-.1-.1.1.1-.1z"/><path id="路径_382" class="st0" d="M159.4 266.8l6.1 6.1-6 6-6.1-6.1 6-6m0-.4l-6.5 6.5 6.6 6.6 6.5-6.5-6.6-6.6z"/><path id="路径_383" class="st0" d="M159.3 266.9l6 6-5.8 5.8-5.9-5.9 5.9-5.9c.1-.1 0-.1 0-.2h-.2l-6 6c-.1.1-.1.1 0 .2l6.1 6.1h.2l6-6v-.2l-6.1-6.1c-.1-.1-.1 0-.2 0v.2zm.1-.5l-.1-.1-6.5 6.5c-.1.1-.1.1 0 .2l6.6 6.6h.2l6.5-6.5v-.2l-6.6-6.6c0-.1-.1-.1-.1.1l-.1.1 6.5 6.5-6.3 6.3-6.4-6.4 6.4-6.4-.1-.1-.1.1.1-.1z"/><path id="路径_384" class="st0" d="M146.9 267.1l5.8 5.8-5.8 5.8v-11.6m-.3-.8v13l6.5-6.5-6.5-6.5z"/><path id="路径_385" class="st0" d="M146.8 267.2l5.7 5.7-5.4 5.4v-11.2c0-.1-.1-.1-.1-.1l-.1.1v11.5c0 .1.1.1.1.1h.1l5.8-5.8v-.2L147 267c-.1-.1-.1 0-.2 0v.2zm-.2-.9h-.1v13.1h.2l6.5-6.5v-.2l-6.6-6.4c0-.2 0-.2-.1-.1v.1h.1l-.1.1 6.4 6.4-6.4 6.4.1.1.1-.1v-12.9h-.1l-.1.1.1-.1z"/><path id="路径_386" class="st0" d="M159.4 279.1l6.1 6.1-6 6-6.1-6.1 6-6m0-.5l-6.5 6.5 6.6 6.6 6.5-6.5-6.6-6.6z"/><path id="路径_387" class="st0" d="M159.3 279.2l6 6-5.8 5.8-5.9-5.9 5.9-5.9c.1-.1 0-.1 0-.2h-.2l-6 6c-.1.1-.1.1 0 .2l6.1 6.1h.2l6-6v-.2l-6.1-6.1c-.1-.1-.1 0-.2 0v.2zm.1-.6l-.1-.1-6.5 6.5c-.1.1-.1.1 0 .2l6.6 6.6h.2l6.5-6.5v-.2l-6.6-6.6c-.1-.1-.1-.1-.2 0l.1.1-.1.1 6.5 6.5-6.3 6.3-6.4-6.4 6.4-6.4-.1-.1z"/><path id="路径_388" class="st0" d="M146.9 279.3l5.8 5.8-5.8 5.8v-11.6m-.3-.7v13l6.5-6.5-6.5-6.5z"/><path id="路径_389" class="st0" d="M146.8 279.4l5.7 5.7-5.4 5.4v-11.2c0-.1-.1-.1-.1-.1s-.2.1-.2.2v11.4c0 .1.1.1.1.1h.1l5.8-5.8v-.2l-5.8-5.8c-.1-.1-.1-.1-.2 0-.1.2-.1.3 0 .3zm-.2-.8h-.1v13.1h.2l6.5-6.5v-.2l-6.5-6.5c-.1-.1-.1-.1-.2 0v.1h.1l-.1.1 6.4 6.4-6.4 6.4.1.1.1-.1v-12.9h-.1l-.1.1.1-.1z"/><path id="路径_390" class="st0" d="M146.9 291.6l5.3 5.8-5.3 5.8v-11.6m-.3-.8v13l5.9-6.5-5.9-6.5z"/><path id="路径_391" class="st0" d="M146.8 291.7l5.2 5.7-4.9 5.4v-11.2c0-.1-.1-.1-.1-.1s-.3 0-.2.2v11.4c0 .1.1.1.1.1h.1l5.3-5.8v-.2l-5.3-5.8c-.1-.1-.1-.1-.2 0s-.1.2 0 .3zm-.2-.9h-.1v13.1h.2l5.9-6.5v-.2l-6-6.5c-.1-.1-.1-.1-.2 0v.1h.2l-.1.1 5.9 6.4-5.9 6.4.1.1.1-.1v-12.9h-.1l-.1.1.1-.1z"/><path id="路径_392" class="st0" d="M146.9 305.8l5.8 5.8-5.8 5.8v-11.6m-.3-.8v13l6.5-6.5-6.5-6.5z"/><path id="路径_393" class="st0" d="M146.8 305.9l5.7 5.7-5.5 5.4v-11.2c0-.1-.1-.1-.1-.1l-.1.1v11.5c0 .1.1.1.1.1h.1l5.8-5.8v-.2l-5.8-5.8c-.1-.1-.1 0-.2 0v.3zm-.2-.9h-.1v13.1h.2l6.5-6.5c.1-.1.1-.1 0-.2l-6.5-6.5c-.1-.1-.1-.1-.2 0v.1h.1l-.1.1 6.4 6.4-6.4 6.4.1.1.1-.1V305h-.1l-.1.1.1-.1z"/><path id="路径_394" class="st0" d="M159.4 242l6.1 6.1-6 6-6.1-6.1 6-6m0-.4l-6.5 6.5 6.6 6.6 6.5-6.5-6.6-6.6z"/><path id="路径_395" class="st0" d="M159.3 242.1l6 6-5.8 5.8-5.9-5.9 5.9-5.9c.1-.1 0-.1 0-.2h-.2l-6 6c-.1.1-.1.1 0 .2l6.1 6.1h.2l6-6v-.2l-6.1-6.1c-.1-.1-.1-.1-.2 0v.2zm.1-.5l-.1-.1-6.5 6.5c-.1.1-.1.1 0 .2l6.6 6.6h.2l6.5-6.5v-.2l-6.6-6.6c-.1-.1-.1-.1-.2 0l.1.1-.1.1 6.5 6.5-6.3 6.3-6.4-6.4 6.4-6.4-.1-.1-.1.1.1-.1z"/><path id="路径_396" class="st0" d="M146.9 242.3l5.8 5.8-5.8 5.8v-11.6m-.3-.8v13l6.5-6.5-6.5-6.5z"/><path id="路径_397" class="st0" d="M146.8 242.4l5.7 5.7-5.4 5.4v-11.2c0-.1-.1-.1-.1-.1l-.1.1v11.5c0 .1.1.1.1.1h.1l5.8-5.8v-.2l-5.8-5.8h-.2c-.1.2-.1.2-.1.3zm-.2-.9h-.1v13.1h.2l6.5-6.5v-.2l-6.5-6.5c-.1 0-.2 0-.1.1-.1-.1-.1 0-.1 0h.1l-.1.1 6.4 6.4-6.4 6.4.1.1.1-.1v-12.9h-.1l-.1.1.1-.1z"/><path id="路径_398" class="st0" d="M159.4 229.5l6.1 6.1-6 6-6.1-6.1 6-6m0-.5l-6.5 6.5 6.6 6.6 6.5-6.5-6.6-6.6z"/><path id="路径_399" class="st0" d="M159.3 229.6l6 6-5.8 5.8-5.9-5.9 5.9-5.9c.1-.1 0-.1 0-.2h-.2l-6 6c-.1.1-.1.1 0 .2l6.1 6.1h.2l6-6v-.2l-6.1-6.1c-.1-.1-.1 0-.2 0v.2zm.1-.6l-.1-.1-6.5 6.5c-.1.1-.1.1 0 .2l6.6 6.6h.2l6.5-6.5v-.2l-6.6-6.6h-.2l.1.1-.1.1 6.5 6.5-6.3 6.3-6.4-6.4 6.4-6.4-.1-.1z"/><path id="路径_400" class="st0" d="M146.9 229.7l5.8 5.8-5.8 5.8v-11.6m-.3-.7v13l6.5-6.5-6.5-6.5z"/><path id="路径_401" class="st0" d="M146.8 229.8l5.7 5.7-5.4 5.4v-11.2c0-.1-.1-.1-.1-.1l-.1.1v11.5c0 .1.1.1.1.1h.1l5.8-5.8v-.2l-5.8-5.8c-.1-.1-.1 0-.2 0-.1.2-.1.3-.1.3zm-.2-.8h-.1v13.2h.2l6.5-6.5v-.2l-6.6-6.5c0-.2 0-.2-.1-.1v.1h.1l-.1.1 6.4 6.4-6.4 6.4.1.1.1-.1V229h-.1l-.1.1.1-.1z"/><path id="路径_402" class="st0" d="M146.9 217.2l5.8 5.8-5.8 5.8v-11.6m-.3-.8v13.1l6.5-6.5-6.5-6.6z"/><path id="路径_403" class="st0" d="M146.8 217.3l5.7 5.7-5.4 5.4v-11.2c0-.1-.1-.1-.1-.1s-.2 0-.2.2v11.4c0 .1.1.1.1.1h.1l5.8-5.8v-.2L147 217h-.2v.3zm-.2-.9h-.1v13.2h.2l6.5-6.5v-.2l-6.5-6.5c-.1-.1-.1-.1-.2 0v.1l.1-.1-.1.1 6.4 6.4-6.4 6.4.1.1.1-.1v-12.9h-.1l-.1.1.1-.1z"/><path id="路径_404" class="st0" d="M146.9 203.5l5.8 5.8-5.8 5.8v-11.6m-.3-.8v13l6.5-6.5-6.5-6.5z"/><path id="路径_405" class="st0" d="M146.8 203.6l5.7 5.7-5.4 5.4v-11.2c0-.1-.1-.1-.1-.1s-.2 0-.2.2V215c0 .1.1.1.1.1h.1l5.8-5.8v-.2l-5.8-5.8c-.1-.1-.1-.1-.2 0s-.1.2 0 .3c0-.1 0-.1 0 0zm-.2-.9h-.1v13.1h.2l6.5-6.5v-.2l-6.5-6.5c-.1-.1-.1-.1-.2 0v.1h.1l-.1.1 6.4 6.4-6.4 6.4.1.1.1-.1v-12.9h-.1l-.1.1.1-.1z"/></g><g id="组_38"><path id="路径_406" class="st0" d="M276 264.2l-6.1-6.1 6-6 6.1 6.1-6 6m0 .4l6.5-6.5-6.6-6.6-6.5 6.5 6.6 6.6z"/><path id="路径_407" class="st0" d="M276.1 264.1l-6-6 5.8-5.8 5.9 5.9-5.9 5.9v.2h.2l6-6v-.2L276 252c-.1-.1-.1-.1-.2 0l-6 6c-.1.1-.1.1 0 .2l6.1 6.1h.2v-.2zm-.1.5l.1.1 6.5-6.5v-.2l-6.6-6.6c-.1-.1-.1-.1-.2 0l-6.5 6.5c-.1.1-.1.1 0 .2l6.6 6.6h.2l-.1-.1.1-.1-6.5-6.5 6.3-6.3 6.4 6.4-6.4 6.4.1.1.1-.1-.1.1z"/><path id="路径_408" class="st0" d="M288.5 263.9l-5.8-5.8 5.8-5.8v11.6m.3.8v-13l-6.5 6.5 6.5 6.5z"/><path id="路径_409" class="st0" d="M288.6 263.8l-5.7-5.7 5.4-5.4v11.2c0 .1.1.1.1.1.1 0 .1-.1.1-.1v-11.5c0-.1-.1-.1-.1-.1h-.1l-5.8 5.8c-.1.1-.1.1 0 .2l5.8 5.8h.2c.2-.2.2-.3.1-.3zm.2.9h.1v-13.1c-.1-.1-.1-.1-.2 0l-6.5 6.5c-.1.1-.1.1 0 .2l6.5 6.5c.1.1.1.1.2 0v-.1h-.1l.1-.1-6.4-6.4 6.4-6.4-.1-.1-.1.1v12.9h.1l.1-.1-.1.1z"/><path id="路径_410" class="st0" d="M263.1 264.1L257 258l6-6 6.1 6.1-6 6m0 .4l6.5-6.5-6.6-6.6-6.5 6.5 6.6 6.6z"/><path id="路径_411" class="st0" d="M263.2 264l-6-6 5.8-5.8 5.9 5.9-5.9 5.9c-.1.1 0 .1 0 .2h.2l6-6v-.2l-6.1-6.1c-.1-.1-.1-.1-.2 0l-6 6c-.1.1-.1.1 0 .2l6.1 6.1c.1.1.1.1.2 0s.1-.2 0-.2zm-.1.5l.1.1 6.5-6.5v-.2l-6.6-6.6c-.1-.1-.1-.1-.2 0l-6.5 6.5c-.1.1-.1.1 0 .2l6.6 6.6h.2l-.1-.1.1-.1-6.5-6.5 6.3-6.3 6.4 6.4-6.3 6.5.1-.1-.1.1z"/><path id="路径_412" class="st0" d="M276 251.9l-6.1-6.1 6-6 6.1 6.1-6 6m0 .5l6.5-6.5-6.6-6.6-6.5 6.5 6.6 6.6z"/><path id="路径_413" class="st0" d="M276.1 251.8l-6-6 5.8-5.8 5.9 5.9-5.9 5.9c-.1.1 0 .1 0 .2h.2l6-6v-.2l-6.1-6.1c-.1-.1-.1-.1-.2 0l-6 6c-.1.1-.1.1 0 .2l6.1 6.1c.1.1.1 0 .2 0v-.2zm-.1.6l.1.1 6.5-6.5v-.2l-6.6-6.6h-.2l-6.5 6.5c-.1.1-.1.1 0 .2l6.6 6.6h.2l-.1-.1.1-.1-6.5-6.5 6.3-6.3 6.4 6.4-6.4 6.4.1.1.1-.1-.1.1z"/><path id="路径_414" class="st0" d="M288.5 251.6l-5.8-5.8 5.8-5.8v11.6m.3.8v-13.1l-6.5 6.5 6.5 6.6z"/><path id="路径_415" class="st0" d="M288.6 251.5l-5.7-5.7 5.4-5.4v11.2c0 .1.1.1.1.1.1 0 .1-.1.1-.1v-11.5c0-.1-.1-.1-.1-.1h-.1l-5.8 5.8c-.1.1-.1.1 0 .2l5.8 5.8h.2c.2-.1.2-.2.1-.3zm.2.9h.1v-13.1c-.1-.1-.1-.1-.2 0l-6.5 6.5c-.1.1-.1.1 0 .2l6.5 6.5c.1.1.1.1.2 0v-.1h-.1l.1-.1-6.4-6.4 6.4-6.4-.1-.1-.1.1v12.9h.1z"/><path id="路径_416" class="st0" d="M276 239.7l-6.1-6.1 6-6 6.1 6.1-6 6m0 .4l6.5-6.5-6.6-6.6-6.5 6.5 6.6 6.6z"/><path id="路径_417" class="st0" d="M276.1 239.6l-6-6 5.8-5.8 5.9 5.9-5.9 5.9v.2h.2l6-6v-.2l-6.1-6.1c-.1-.1-.1-.1-.2 0l-6 6c-.1.1-.1.1 0 .2l6.1 6.1h.2v-.2zm-.1.5l.1.1 6.5-6.5v-.2L276 227c-.1-.1-.1-.1-.2 0l-6.5 6.5c-.1.1-.1.1 0 .2l6.6 6.6h.2l-.1-.2.1-.1-6.5-6.5 6.3-6.3 6.4 6.4-6.4 6.4.1.1.1-.1-.1.1z"/><path id="路径_418" class="st0" d="M288.5 239.4l-5.8-5.8 5.8-5.8v11.6m.3.8v-13l-6.5 6.5 6.5 6.5z"/><path id="路径_419" class="st0" d="M288.6 239.3l-5.7-5.7 5.4-5.4v11.2c0 .1.1.1.1.1.1 0 .1-.1.1-.1v-11.5c0-.1-.1-.1-.1-.1h-.1l-5.8 5.8c-.1.1-.1.1 0 .2l5.8 5.8h.2c.2-.2.2-.2.1-.3zm.2.9h.1v-13.1c-.1-.1-.1-.1-.2 0l-6.5 6.5c-.1.1-.1.1 0 .2l6.5 6.5c.1.1.1.1.2 0v-.1h-.1l.1-.1-6.4-6.4 6.4-6.4-.1-.1-.1.1v12.9h.1l.1-.1-.1.1z"/><path id="路径_420" class="st0" d="M288.6 227.2l-5.3-5.8 5.3-5.8v11.6m.2.7v-13.1l-5.9 6.5 5.9 6.6z"/><path id="路径_421" class="st0" d="M288.7 227.1l-5.2-5.7 4.9-5.4v11.2c0 .1.1.1.1.1.1 0 .2-.1.2-.2v-11.4c0-.1-.1-.1-.1-.1h-.1l-5.3 5.8c-.1.1-.1.1 0 .2l5.3 5.8c.1.1.1.1.2 0v-.3zm.2.8h.1v-13.2h-.2l-5.9 6.5c-.1.1-.1.1 0 .2l6 6.5c.1.1.1.1.2 0v-.1l-.2.1.1-.1-5.9-6.4 5.9-6.4-.1-.1-.1.1v12.9h.1l.1-.1-.1.1z"/><path id="路径_422" class="st0" d="M288.5 212.9l-5.8-5.8 5.8-5.8v11.6m.3.8v-13l-6.5 6.5 6.5 6.5z"/><path id="路径_423" class="st0" d="M288.6 212.8l-5.7-5.7 5.4-5.4v11.2c0 .1.1.1.1.1.1 0 .1-.1.1-.1v-11.5c0-.1-.1-.1-.1-.1h-.1l-5.8 5.8c-.1.1-.1.1 0 .2l5.8 5.8h.2c.2-.1.2-.2.1-.3zm.2.9h.1v-13.1c-.1-.1-.1-.1-.2 0l-6.5 6.5c-.1.1-.1.1 0 .2l6.5 6.5c.1.1.1.1.2 0v-.1h-.1l.1-.1-6.4-6.4 6.4-6.4-.1-.1-.1.1v12.9h.1z"/><path id="路径_424" class="st0" d="M276 276.7l-6.1-6.1 6-6 6.1 6.1-6 6m0 .5l6.5-6.5-6.6-6.6-6.5 6.5 6.6 6.6z"/><path id="路径_425" class="st0" d="M276.1 276.6l-6-6 5.8-5.8 5.9 5.9-5.9 5.9v.2h.2l6-6v-.2l-6.1-6.1c-.1-.1-.1-.1-.2 0l-6 6c-.1.1-.1.1 0 .2l6.1 6.1h.2v-.2zm-.1.6l.1.1 6.5-6.5v-.2L276 264c-.1-.1-.1-.1-.2 0l-6.5 6.5c-.1.1-.1.1 0 .2l6.6 6.6h.2l-.1-.1.1-.1-6.5-6.5 6.3-6.3 6.4 6.4-6.4 6.4.1.1z"/><path id="路径_426" class="st0" d="M288.5 276.4l-5.8-5.8 5.8-5.8v11.6m.3.8v-13l-6.5 6.5 6.5 6.5z"/><path id="路径_427" class="st0" d="M288.6 276.3l-5.7-5.7 5.4-5.4v11.2c0 .1.1.1.1.1.1 0 .1-.1.1-.1v-11.5c0-.1-.1-.1-.1-.1h-.1l-5.8 5.8c-.1.1-.1.1 0 .2l5.8 5.8c.1.1.1 0 .2 0 .2-.1.2-.2.1-.3zm.2.9h.1v-13.1c-.1-.1-.1-.1-.2 0l-6.5 6.5c-.1.1-.1.1 0 .2l6.5 6.5c.1.1.1.1.2 0v-.1h-.1l.1-.1-6.4-6.4 6.4-6.4-.1-.1-.1.1v12.9h.1z"/><path id="路径_428" class="st0" d="M276 289.3l-6.1-6.1 6-6 6.1 6.1-6 6m0 .4l6.5-6.5-6.6-6.6-6.5 6.5 6.6 6.6z"/><path id="路径_429" class="st0" d="M276.1 289.2l-6-6 5.8-5.8 5.9 5.9-5.9 5.9c-.1.1 0 .1 0 .2h.2l6-6v-.2L276 277c-.1-.1-.1-.1-.2 0l-6 6c-.1.1-.1.1 0 .2l6.1 6.1c.1.1.1 0 .2 0v-.1zm-.1.5l.1.1 6.5-6.5v-.2l-6.6-6.6c-.1-.1-.1-.1-.2 0l-6.5 6.5c-.1.1-.1.1 0 .2l6.6 6.6h.2l-.1-.1.1-.1-6.5-6.5 6.3-6.3 6.4 6.4-6.4 6.4.1.1.1-.1-.1.1z"/><path id="路径_430" class="st0" d="M288.5 289l-5.8-5.8 5.8-5.8V289m.3.8v-13l-6.5 6.5 6.5 6.5z"/><path id="路径_431" class="st0" d="M288.6 288.9l-5.7-5.7 5.4-5.4V289c0 .1.1.1.1.1.1 0 .1-.1.1-.1v-11.5c0-.1-.1-.1-.1-.1h-.1l-5.8 5.8c-.1.1-.1.1 0 .2l5.8 5.8h.2c.2-.2.2-.2.1-.3zm.2.9h.1v-13.1c-.1-.1-.1-.1-.2 0l-6.5 6.5c-.1.1-.1.1 0 .2l6.5 6.5c.1.1.1.1.2 0v-.1h-.1l.1-.1-6.4-6.4 6.4-6.4-.1-.1-.1.1v12.9h.1z"/><path id="路径_432" class="st0" d="M288.5 301.6l-5.8-5.8 5.8-5.8v11.6m.3.7v-13l-6.5 6.5 6.5 6.5z"/><path id="路径_433" class="st0" d="M288.6 301.5l-5.7-5.7 5.4-5.4v11.2c0 .1.1.1.1.1.1 0 .1-.1.1-.1V290c0-.1-.1-.1-.1-.1h-.1l-5.8 5.8c-.1.1-.1.1 0 .2l5.8 5.8c.1.1.1 0 .2 0 .2-.1.2-.2.1-.2zm.2.8h.1v-13.1c-.1-.1-.1-.1-.2 0l-6.5 6.5c-.1.1-.1.1 0 .2l6.5 6.5c.1.1.1.1.2 0v-.1h-.1l.1-.1-6.4-6.4 6.4-6.4-.1-.1-.1.1v12.9h.1l.1-.1-.1.1z"/><path id="路径_434" class="st0" d="M288.5 315.3l-5.8-5.8 5.8-5.8v11.6m.3.8v-13l-6.5 6.5 6.5 6.5z"/><path id="路径_435" class="st0" d="M288.6 315.2l-5.7-5.7 5.4-5.4v11.2c0 .1.1.1.1.1.1 0 .1-.1.1-.1v-11.5c0-.1-.1-.1-.1-.1h-.1l-5.8 5.8c-.1.1-.1.1 0 .2l5.8 5.8c.1.1.1.1.2 0s.2-.2.1-.3zm.2.9h.1V303c-.1-.1-.1-.1-.2 0l-6.5 6.5c-.1.1-.1.1 0 .2l6.5 6.5c.1.1.1.1.2 0v-.1h-.1l.1-.1-6.4-6.4 6.4-6.4-.1-.1-.1.1v12.9h.1l.1-.1-.1.1z"/></g></g></svg>